<svg width="24" height="24" viewBox="0 0 24 24" fill="none" xmlns="http://www.w3.org/2000/svg">
<g id="Icon">
<path id="Vector" d="M21.555 10.7225L20.205 9.1425C19.955 8.8425 19.745 8.2825 19.745 7.8825V6.1825C19.745 5.1225 18.875 4.2525 17.815 4.2525H16.115C15.715 4.2525 15.145 4.0425 14.845 3.7925L13.265 2.4425C12.575 1.8525 11.445 1.8525 10.755 2.4425L9.155 3.7925C8.855 4.0425 8.295 4.2525 7.895 4.2525H6.165C5.105 4.2525 4.235 5.1225 4.235 6.1825V7.8825C4.235 8.2725 4.035 8.8325 3.785 9.1325L2.435 10.7225C1.855 11.4225 1.855 12.5425 2.435 13.2225L3.785 14.8125C4.035 15.1025 4.235 15.6725 4.235 16.0625V17.7725C4.235 18.8325 5.105 19.7025 6.165 19.7025H7.905C8.295 19.7025 8.865 19.9125 9.165 20.1625L10.745 21.5125C11.435 22.1025 12.565 22.1025 13.255 21.5125L14.835 20.1625C15.135 19.9125 15.695 19.7025 16.095 19.7025H17.795C18.855 19.7025 19.725 18.8325 19.725 17.7725V16.0725C19.725 15.6725 19.935 15.1125 20.185 14.8125L21.535 13.2325C22.145 12.5525 22.145 11.4225 21.555 10.7225ZM11.245 8.1125C11.245 7.7025 11.585 7.3625 11.995 7.3625C12.405 7.3625 12.745 7.7025 12.745 8.1125V12.9425C12.745 13.3525 12.405 13.6925 11.995 13.6925C11.585 13.6925 11.245 13.3525 11.245 12.9425V8.1125ZM11.995 16.8525C11.445 16.8525 10.995 16.4025 10.995 15.8525C10.995 15.3025 11.435 14.8525 11.995 14.8525C12.545 14.8525 12.995 15.3025 12.995 15.8525C12.995 16.4025 12.555 16.8525 11.995 16.8525Z" fill="#26C8B8"/>
</g>
</svg>
