<svg width="17" height="17" viewBox="0 0 24 24" fill="none" xmlns="http://www.w3.org/2000/svg">
<g id="Icon">
<path id="Vector" d="M8.10462 8.69826C10.5066 8.69826 12.4537 6.75109 12.4537 4.34913C12.4537 1.94717 10.5066 0 8.10462 0C5.70266 0 3.75549 1.94717 3.75549 4.34913C3.75549 6.75109 5.70266 8.69826 8.10462 8.69826Z" fill="#040201"/>
<path id="Vector_2" fill-rule="evenodd" clip-rule="evenodd" d="M12.8491 10.0378C11.2945 10.0378 10.0325 11.2999 10.0325 12.8545C10.0325 14.4091 11.2945 15.6719 12.8491 15.6719C14.4037 15.6719 15.6666 14.4091 15.6666 12.8545C15.6666 11.2999 14.4037 10.0378 12.8491 10.0378ZM12.8491 11.224C13.749 11.224 14.4804 11.9546 14.4804 12.8545C14.4804 13.7544 13.749 14.4858 12.8491 14.4858C11.9493 14.4858 11.2178 13.7544 11.2178 12.8545C11.2178 11.9546 11.9493 11.224 12.8491 11.224Z" fill="#040201"/>
<path id="Vector_3" fill-rule="evenodd" clip-rule="evenodd" d="M13.4421 10.6302V9.29619C13.4421 8.96882 13.1764 8.70312 12.849 8.70312C12.5217 8.70312 12.256 8.96882 12.256 9.29619V10.631C12.256 10.9576 12.5217 11.224 12.849 11.224C13.1764 11.2232 13.4421 10.9576 13.4421 10.6302Z" fill="#040201"/>
<path id="Vector_4" fill-rule="evenodd" clip-rule="evenodd" d="M14.841 11.7015L15.7844 10.7573C16.0161 10.5264 16.0161 10.15 15.7844 9.91913C15.5535 9.68744 15.1771 9.68744 14.9462 9.91913L14.002 10.8625C13.7711 11.0942 13.7711 11.4698 14.002 11.7015C14.2337 11.9324 14.6093 11.9324 14.841 11.7015Z" fill="#040201"/>
<path id="Vector_5" fill-rule="evenodd" clip-rule="evenodd" d="M15.0726 13.4476H16.4074C16.7348 13.4476 17.0005 13.1819 17.0005 12.8545C17.0005 12.5272 16.7348 12.2615 16.4074 12.2615H15.0726C14.746 12.2615 14.4803 12.5272 14.4803 12.8545C14.4796 13.1819 14.746 13.4476 15.0726 13.4476Z" fill="#040201"/>
<path id="Vector_6" fill-rule="evenodd" clip-rule="evenodd" d="M14.002 14.8464L14.9462 15.7898C15.1771 16.0214 15.5535 16.0214 15.7844 15.7898C16.0161 15.5589 16.0161 15.1825 15.7844 14.9516L14.841 14.0074C14.6093 13.7765 14.2337 13.7765 14.002 14.0074C13.7711 14.2391 13.7711 14.6147 14.002 14.8464Z" fill="#040201"/>
<path id="Vector_7" fill-rule="evenodd" clip-rule="evenodd" d="M12.256 15.0782V16.413C12.256 16.7403 12.5217 17.006 12.849 17.006C13.1764 17.006 13.4421 16.7403 13.4421 16.413V15.0782C13.4421 14.7516 13.1764 14.4859 12.849 14.4851C12.5217 14.4851 12.256 14.7516 12.256 15.0782Z" fill="#040201"/>
<path id="Vector_8" fill-rule="evenodd" clip-rule="evenodd" d="M10.8571 14.0074L9.91376 14.9516C9.68207 15.1825 9.68207 15.5589 9.91376 15.7898C10.1447 16.0214 10.5211 16.0214 10.752 15.7898L11.6961 14.8464C11.927 14.6147 11.927 14.2391 11.6961 14.0074C11.4644 13.7765 11.0888 13.7765 10.8571 14.0074Z" fill="#040201"/>
<path id="Vector_9" fill-rule="evenodd" clip-rule="evenodd" d="M10.6247 12.2615H9.29069C8.96332 12.2615 8.69763 12.5272 8.69763 12.8545C8.69763 13.1819 8.96332 13.4476 9.29069 13.4476H10.6247C10.9521 13.4476 11.2185 13.1819 11.2178 12.8545C11.2178 12.5272 10.9521 12.2615 10.6247 12.2615Z" fill="#040201"/>
<path id="Vector_10" fill-rule="evenodd" clip-rule="evenodd" d="M11.6961 10.8625L10.752 9.91913C10.5211 9.68744 10.1447 9.68744 9.91376 9.91913C9.68207 10.15 9.68207 10.5264 9.91376 10.7573L10.8571 11.7015C11.0888 11.9324 11.4644 11.9324 11.6961 11.7015C11.927 11.4698 11.927 11.0942 11.6961 10.8625Z" fill="#040201"/>
<path id="Vector_11" fill-rule="evenodd" clip-rule="evenodd" d="M9.2401 16.2199C8.81784 15.6774 8.8558 14.8906 9.35476 14.3925L9.50817 14.2383H9.29071C8.52684 14.2383 7.9069 13.6183 7.9069 12.8544C7.9069 12.0906 8.52684 11.4706 9.29071 11.4706H9.50817L9.35476 11.3164C8.83603 10.7985 8.81547 9.96899 9.29308 9.42575C8.90561 9.3957 8.50866 9.37988 8.10458 9.37988C5.47771 9.37988 3.15211 10.037 1.7082 11.0215C0.606686 11.7727 -0.000610352 12.7271 -0.000610352 13.729V14.8756C-0.000610352 15.2322 0.140934 15.5746 0.393183 15.8261C0.645433 16.0783 0.987037 16.2199 1.34367 16.2199H9.2401Z" fill="#040201"/>
</g>
</svg>
