<svg width="24" height="24" viewBox="0 0 24 24" fill="none" xmlns="http://www.w3.org/2000/svg">
<g id="Group 82">
<path id="Vector" d="M8.09374 0H1.5312C0.686855 0 0 0.686855 0 1.5312V5.46873C0 6.31324 0.686855 7.00009 1.5312 7.00009H8.09374C8.93825 7.00009 9.62511 6.31324 9.62511 5.46873V1.5312C9.62511 0.686855 8.93825 0 8.09374 0Z" fill="#040201"/>
<path id="Vector_2" d="M8.09368 8.75H1.53114C0.686794 8.75 -6.10352e-05 9.43686 -6.10352e-05 10.2814V19.4689C-6.10352e-05 20.3133 0.686794 21.0001 1.53114 21.0001H8.09368C8.93819 21.0001 9.62504 20.3133 9.62504 19.4689V10.2814C9.62504 9.43686 8.93819 8.75 8.09368 8.75Z" fill="#040201"/>
<path id="Vector_3" d="M19.4688 14H12.9062C12.0617 14 11.3749 14.6869 11.3749 15.5314V19.4689C11.3749 20.3132 12.0617 21.0001 12.9062 21.0001H19.4688C20.3131 21.0001 21 20.3132 21 19.4689V15.5314C21 14.6869 20.3131 14 19.4688 14Z" fill="#040201"/>
<path id="Vector_4" d="M19.4688 0H12.9062C12.0617 0 11.3749 0.686855 11.3749 1.5312V10.7188C11.3749 11.5633 12.0617 12.2501 12.9062 12.2501H19.4688C20.3131 12.2501 21 11.5633 21 10.7188V1.5312C21 0.686855 20.3131 0 19.4688 0Z" fill="#040201"/>
</g>
</svg>
