<svg width="24" height="24" viewBox="0 0 21 21" fill="none" xmlns="http://www.w3.org/2000/svg">
<g id="Group">
<path id="Vector" d="M15.7282 14.696C15.159 14.696 14.6959 15.1591 14.6959 15.7283C14.7478 17.0958 16.7087 17.0954 16.7604 15.7283C16.7604 15.1591 16.2973 14.696 15.7282 14.696Z" fill="#040201"/>
<path id="Vector_2" d="M10.5044 11.7563L11.3557 10.905C11.2608 10.7967 11.2028 10.6553 11.2028 10.4999V9.84095C11.233 9.02552 12.4033 9.02614 12.4332 9.84095V10.08C12.7253 9.97823 13.0562 9.95465 13.3627 10.0169C13.6847 9.53711 14.2321 9.22572 14.8429 9.22572H15.0692V0.615234C15.0692 0.275461 14.7937 0 14.4539 0H3.91016C3.57038 0 3.29492 0.275461 3.29492 0.615234V17.0461H9.27946C9.24456 16.9071 9.22578 16.7621 9.22578 16.6133V14.8429C9.22578 14.232 9.53725 13.6846 10.0172 13.3625C9.90553 12.7955 10.0725 12.1882 10.5044 11.7563ZM11.2028 3.25118C11.233 2.43575 12.4033 2.43637 12.4332 3.25118V3.91018C12.403 4.72561 11.2327 4.72499 11.2028 3.91018V3.25118ZM11.2028 6.54609C11.233 5.73066 12.4033 5.73127 12.4332 6.54609V7.20504C12.403 8.02047 11.2327 8.01986 11.2028 7.20504V6.54609ZM7.16134 10.5C7.13107 11.3154 5.96085 11.3148 5.93087 10.5V9.84099C5.96114 9.02556 7.13136 9.02618 7.16134 9.84099V10.5ZM7.16134 7.20508C7.13107 8.02052 5.96085 8.0199 5.93087 7.20508V6.54609C5.96114 5.73066 7.13136 5.73127 7.16134 6.54609V7.20508ZM7.16134 3.91014C7.13107 4.72557 5.96085 4.72495 5.93087 3.91014V3.25118C5.96114 2.43575 7.13136 2.43637 7.16134 3.25118V3.91014ZM9.79729 10.5C9.76702 11.3154 8.5968 11.3148 8.56682 10.5V9.84099C8.59709 9.02556 9.7673 9.02618 9.79729 9.84099V10.5ZM9.79729 7.20508C9.76702 8.02052 8.5968 8.0199 8.56682 7.20508V6.54609C8.59709 5.73066 9.7673 5.73127 9.79729 6.54609V7.20508ZM9.79729 3.91014C9.76702 4.72557 8.5968 4.72495 8.56682 3.91014V3.25118C8.59709 2.43575 9.7673 2.43637 9.79729 3.25118V3.91014Z" fill="#040201"/>
<path id="Vector_3" d="M18.0937 10.017C18.4002 9.95473 18.7311 9.97827 19.0231 10.0801V5.88713C19.0231 5.72397 18.9583 5.56749 18.8429 5.45212L16.8659 3.47517C16.7205 3.32812 16.5014 3.26353 16.2997 3.30954V9.2258H16.6133C17.2242 9.2258 17.7716 9.53723 18.0937 10.017Z" fill="#040201"/>
<path id="Vector_4" d="M20.5173 14.2963L19.8453 14.2124C19.805 14.1029 19.7602 13.995 19.7112 13.8891L20.1271 13.3542C20.2977 13.1349 20.2782 12.8229 20.0818 12.6264L18.8298 11.3745C18.6334 11.1781 18.3214 11.1586 18.102 11.3292L17.5672 11.7451C17.4611 11.6961 17.3533 11.6513 17.2439 11.611L17.16 10.939C17.1255 10.6632 16.8912 10.4563 16.6133 10.4563H14.8429C14.565 10.4563 14.3306 10.6632 14.2962 10.939L14.2123 11.611C14.1029 11.6513 13.995 11.696 13.8889 11.7451L13.3541 11.3292C13.1348 11.1586 12.8229 11.178 12.6263 11.3745L11.3744 12.6264C11.1779 12.8229 11.1585 13.1348 11.3291 13.3542L11.745 13.889C11.696 13.9951 11.6512 14.103 11.6109 14.2123L10.9388 14.2963C10.6631 14.3307 10.4562 14.5651 10.4562 14.843V16.6133C10.4562 16.8912 10.6631 17.1256 10.9388 17.16L11.6108 17.2439C11.6512 17.3534 11.6959 17.4613 11.745 17.5673L11.3291 18.1021C11.1585 18.3214 11.1779 18.6335 11.3744 18.8299L12.6263 20.0818C12.8228 20.2783 13.1348 20.2977 13.3541 20.1271L13.889 19.7112C13.995 19.7602 14.1029 19.805 14.2123 19.8453L14.2962 20.5173C14.3306 20.793 14.565 21 14.8429 21H16.6133C16.8912 21 17.1255 20.793 17.16 20.5173L17.2439 19.8453C17.3533 19.805 17.4612 19.7602 17.5672 19.7112L18.102 20.1271C18.3214 20.2977 18.6333 20.2782 18.8298 20.0818L20.0818 18.8298C20.2783 18.6333 20.2977 18.3213 20.1271 18.102L19.7111 17.5672C19.7602 17.4611 19.8049 17.3533 19.8453 17.2439L20.5173 17.16C20.793 17.1256 21 16.8912 21 16.6133V14.8429C21 14.5651 20.793 14.3308 20.5173 14.2963ZM15.7281 17.9909C14.4805 17.9909 13.4654 16.9758 13.4654 15.7282C13.5791 12.7305 17.8775 12.7313 17.9908 15.7282C17.9908 16.9758 16.9757 17.9909 15.7281 17.9909Z" fill="#040201"/>
<path id="Vector_5" d="M0 7.86426V16.4311C0 16.7708 0.275461 17.0463 0.615234 17.0463H2.06444V7.24902H0.615234C0.275461 7.24902 0 7.52448 0 7.86426Z" fill="#040201"/>
</g>
</svg>
