<svg width="20" height="20" viewBox="0 0 20 20" fill="none" xmlns="http://www.w3.org/2000/svg">
<g id="Group 85">
<path id="Vector" d="M12.4999 10.8332C12.0391 10.8332 11.6667 11.2066 11.6667 11.6665V14.9999C11.6667 15.4591 11.2933 15.8332 10.8332 15.8332H8.33325V3.33327C8.33325 2.6216 7.87991 1.98577 7.1983 1.74911L6.95157 1.66656H10.8332C11.2933 1.66656 11.6667 2.0407 11.6667 2.49999V4.99998C11.6667 5.45988 12.0391 5.83326 12.4999 5.83326C12.9608 5.83326 13.3332 5.45988 13.3332 4.99998V2.49999C13.3332 1.12167 12.2116 0 10.8332 0H1.87499C1.84325 0 1.8167 0.0141906 1.78588 0.0183105C1.74575 0.0149536 1.70745 0 1.66671 0C0.747525 0 0 0.747372 0 1.66656V16.6665C0 17.3782 0.453337 18.014 1.13494 18.2507L6.15003 19.9224C6.32001 19.9749 6.48908 19.9999 6.66669 19.9999C7.58588 19.9999 8.33325 19.2524 8.33325 18.3332V17.4999H10.8332C12.2116 17.4999 13.3332 16.3783 13.3332 14.9999V11.6665C13.3332 11.2066 12.9608 10.8332 12.4999 10.8332Z" fill="#4D4D4D"/>
<path id="Vector_2" d="M19.7557 7.74465L16.4222 4.41138C16.1841 4.17304 15.8256 4.10133 15.514 4.23042C15.2032 4.35966 14.9998 4.66376 14.9998 5.00052V7.50051H11.6666C11.2065 7.50051 10.8331 7.87374 10.8331 8.33379C10.8331 8.79384 11.2065 9.16707 11.6666 9.16707H14.9998V11.6671C14.9998 12.0038 15.2032 12.3079 15.514 12.4372C15.8256 12.5663 16.1841 12.4945 16.4222 12.2564L19.7557 8.92293C20.0814 8.59716 20.0814 8.07043 19.7557 7.74465Z" fill="#4D4D4D"/>
</g>
</svg>
