<svg width="24" height="24" viewBox="0 0 24 24" fill="none" xmlns="http://www.w3.org/2000/svg">
<g id="Group 83">
<g id="Group">
<g id="Group_2">
<path id="Vector" d="M20.3485 7.77816C19.5839 7.13528 18.4139 7.21186 17.75 8.00346L17.3511 8.47547L20.1789 10.8482L20.5598 10.3779C21.2151 9.5986 21.1322 8.43474 20.3485 7.77816Z" fill="#040201"/>
</g>
</g>
<g id="Group_3">
<g id="Group_4">
<path id="Vector_2" d="M12.361 14.3796L12.1506 14.6287C11.9679 14.8474 11.8364 15.1087 11.7703 15.3857L11.1983 17.7793C11.1443 18.0058 11.223 18.2438 11.4014 18.3934C11.575 18.5393 11.82 18.5817 12.0413 18.4871L14.2997 17.5078C14.5611 17.3942 14.7954 17.2194 14.978 17.0025L15.1892 16.7526L12.361 14.3796Z" fill="#040201"/>
</g>
</g>
<g id="Group_5">
<g id="Group_6">
<path id="Vector_3" d="M16.5564 9.41504L13.1553 13.4392L15.9833 15.8122L19.3842 11.7878L16.5564 9.41504Z" fill="#040201"/>
</g>
</g>
<g id="Group_7">
<g id="Group_8">
<path id="Vector_4" d="M15.4229 2.72785L13.0857 0.507225C12.8648 0.297758 12.593 0.174383 12.3065 0.0942383V3.69155H15.959C15.8827 3.32611 15.6964 2.98756 15.4229 2.72785Z" fill="#040201"/>
</g>
</g>
<g id="Group_9">
<g id="Group_10">
<path id="Vector_5" d="M10.5735 15.0996C10.6834 14.6393 10.9027 14.2037 11.2068 13.8396L15.9984 8.1698V4.92258H11.6911C11.351 4.92258 11.0758 4.64737 11.0758 4.30726V0H1.84597C0.82806 0 0 0.82806 0 1.84597V19.157C0 20.175 0.82806 21.003 1.84597 21.003H14.1524C15.1703 21.003 15.9984 20.175 15.9984 19.157V17.7025L15.9185 17.797C15.6162 18.157 15.2262 18.4472 14.7918 18.6365L12.5312 19.6166C11.8941 19.8917 11.1565 19.7943 10.6107 19.3372C10.0717 18.8847 9.83798 18.1786 10.0014 17.4936L10.5735 15.0996ZM3.07661 3.69194H9.22984C9.56995 3.69194 9.84516 3.96715 9.84516 4.30726C9.84516 4.64737 9.56995 4.92258 9.22984 4.92258H3.07661C2.7365 4.92258 2.46129 4.64737 2.46129 4.30726C2.46129 3.96715 2.7365 3.69194 3.07661 3.69194ZM3.07661 7.42489H12.9218C13.2619 7.42489 13.5371 7.70011 13.5371 8.04022C13.5371 8.38033 13.2619 8.65554 12.9218 8.65554H3.07661C2.7365 8.65554 2.46129 8.38033 2.46129 8.04022C2.46129 7.70011 2.7365 7.42489 3.07661 7.42489ZM7.99919 16.0394H3.07661C2.7365 16.0394 2.46129 15.7642 2.46129 15.4241C2.46129 15.084 2.7365 14.8088 3.07661 14.8088H7.99919C8.3393 14.8088 8.61452 15.084 8.61452 15.4241C8.61452 15.7642 8.3393 16.0394 7.99919 16.0394ZM3.07661 12.3475C2.7365 12.3475 2.46129 12.0723 2.46129 11.7322C2.46129 11.392 2.7365 11.1168 3.07661 11.1168H10.4605C10.8006 11.1168 11.0758 11.392 11.0758 11.7322C11.0758 12.0723 10.8006 12.3475 10.4605 12.3475H3.07661Z" fill="#040201"/>
</g>
</g>
</g>
</svg>
