<svg width="24" height="24" viewBox="0 0 24 24" fill="none" xmlns="http://www.w3.org/2000/svg">
<g id="Group 84">
<path id="Vector" d="M11.4792 19.0001C11.2155 19.0001 10.9678 18.8687 10.8205 18.6478L9.47229 16.6251H7.91667C7.47967 16.6251 7.125 16.2704 7.125 15.8334C7.125 15.3964 7.47967 15.0418 7.91667 15.0418H9.89584C10.1603 15.0418 10.4073 15.174 10.5545 15.3941L11.381 16.6338L13.1456 13.1038C13.2755 12.8457 13.5343 12.6778 13.8233 12.6668C14.1305 12.6596 14.3838 12.8029 14.5326 13.0499L16.6773 16.6251H18.2083C18.6453 16.6251 19 16.9798 19 17.4168C19 17.8538 18.6453 18.2084 18.2083 18.2084H16.2292C15.9513 18.2084 15.6932 18.0628 15.5507 17.8245L13.9175 15.1027L12.1877 18.5631C12.061 18.8156 11.8101 18.9819 11.5283 18.9993C11.5124 19.0001 11.4958 19.0001 11.4792 19.0001Z" fill="#040201"/>
<path id="Vector_2" d="M7.12496 7.91667C9.31109 7.91667 11.0833 6.14447 11.0833 3.95834C11.0833 1.77221 9.31109 0 7.12496 0C4.93883 0 3.16663 1.77221 3.16663 3.95834C3.16663 6.14447 4.93883 7.91667 7.12496 7.91667Z" fill="#040201"/>
<path id="Vector_3" d="M5.54167 15.8333C5.54167 14.5239 6.60726 13.4583 7.91667 13.4583H9.89584C10.3067 13.4583 10.7026 13.5636 11.0501 13.7568L11.7301 12.3959C12.0761 11.7064 12.7348 11.2543 13.4829 11.134C12.7625 10.1484 11.6066 9.5 10.2917 9.5H3.95834C1.77254 9.5 0 11.2725 0 13.4583V16.0313C0 16.359 0.266 16.625 0.59375 16.625H5.68734C5.59867 16.3764 5.54167 16.112 5.54167 15.8333Z" fill="#040201"/>
</g>
</svg>
