<svg width="24" height="24" viewBox="0 0 24 24" fill="none" xmlns="http://www.w3.org/2000/svg">
<g id="Group">
<path id="Vector" d="M13.6244 3.26107C14.6683 3.9156 15.4004 5.02319 15.5336 6.30885C15.9594 6.50777 16.4319 6.62217 16.9328 6.62217C18.7617 6.62217 20.2441 5.13984 20.2441 3.31122C20.2441 1.48233 18.7617 0 16.9328 0C15.1214 0.000563517 13.652 1.45641 13.6244 3.26107ZM11.4552 10.0407C13.2841 10.0407 14.7664 8.55813 14.7664 6.72952C14.7664 4.90091 13.2838 3.41858 11.4552 3.41858C9.62656 3.41858 8.14338 4.90119 8.14338 6.7298C8.14338 8.55841 9.62656 10.0407 11.4552 10.0407ZM12.8597 10.2664H10.05C7.71229 10.2664 5.81042 12.1686 5.81042 14.5063V17.9424L5.81916 17.9962L6.05583 18.0703C8.2868 18.7674 10.225 18.9998 11.8203 18.9998C14.9363 18.9998 16.7424 18.1114 16.8537 18.0548L17.0748 17.9429H17.0985V14.5063C17.0994 12.1686 15.1975 10.2664 12.8597 10.2664ZM18.338 6.84814H15.55C15.5198 7.96362 15.0436 8.96809 14.2905 9.69052C16.3685 10.3084 17.8888 12.2354 17.8888 14.5114V15.5703C20.6416 15.4694 22.2279 14.6892 22.3325 14.6368L22.5536 14.5246H22.5773V11.0875C22.5773 8.75001 20.6754 6.84814 18.338 6.84814ZM5.64503 6.62273C6.29279 6.62273 6.89547 6.43367 7.40602 6.11162C7.56831 5.05306 8.13577 4.12804 8.94639 3.49803C8.94977 3.43604 8.95569 3.37462 8.95569 3.31207C8.95569 1.48318 7.47308 0.000845214 5.64503 0.000845214C3.81585 0.000845214 2.33381 1.48318 2.33381 3.31207C2.33381 5.14012 3.81585 6.62273 5.64503 6.62273ZM8.61871 9.69052C7.86923 8.97175 7.39475 7.97264 7.36009 6.86392C7.25669 6.85631 7.15441 6.84814 7.04903 6.84814H4.23962C1.90187 6.84814 0 8.75001 0 11.0875V14.5241L0.00873451 14.5771L0.245412 14.6517C2.03514 15.2104 3.63243 15.468 5.01981 15.5491V14.5114C5.02037 12.2354 6.54018 10.309 8.61871 9.69052Z" fill="#040201"/>
</g>
</svg>
