<svg width="24" height="24" viewBox="0 0 24 24" fill="none" xmlns="http://www.w3.org/2000/svg">
<path d="M12.1046 11.6983C14.5066 11.6983 16.4537 9.75109 16.4537 7.34913C16.4537 4.94717 14.5066 3 12.1046 3C9.70266 3 7.75549 4.94717 7.75549 7.34913C7.75549 9.75109 9.70266 11.6983 12.1046 11.6983Z" fill="#4D4D4D"/>
<path fill-rule="evenodd" clip-rule="evenodd" d="M16.8492 13.0381C15.2946 13.0381 14.0325 14.3001 14.0325 15.8547C14.0325 17.4094 15.2946 18.6722 16.8492 18.6722C18.4038 18.6722 19.6666 17.4094 19.6666 15.8547C19.6666 14.3001 18.4038 13.0381 16.8492 13.0381ZM16.8492 14.2242C17.7491 14.2242 18.4805 14.9549 18.4805 15.8547C18.4805 16.7546 17.7491 17.4861 16.8492 17.4861C15.9493 17.4861 15.2179 16.7546 15.2179 15.8547C15.2179 14.9549 15.9493 14.2242 16.8492 14.2242Z" fill="#4D4D4D"/>
<path fill-rule="evenodd" clip-rule="evenodd" d="M17.4422 13.6302V12.2962C17.4422 11.9688 17.1765 11.7031 16.8492 11.7031C16.5218 11.7031 16.2561 11.9688 16.2561 12.2962V13.631C16.2561 13.9576 16.5218 14.224 16.8492 14.224C17.1765 14.2232 17.4422 13.9576 17.4422 13.6302Z" fill="#4D4D4D"/>
<path fill-rule="evenodd" clip-rule="evenodd" d="M18.841 14.7012L19.7844 13.7571C20.0161 13.5262 20.0161 13.1498 19.7844 12.9189C19.5535 12.6872 19.1771 12.6872 18.9462 12.9189L18.002 13.8622C17.7711 14.0939 17.7711 14.4695 18.002 14.7012C18.2337 14.9321 18.6093 14.9321 18.841 14.7012Z" fill="#4D4D4D"/>
<path fill-rule="evenodd" clip-rule="evenodd" d="M19.0727 16.4478H20.4075C20.7349 16.4478 21.0006 16.1822 21.0006 15.8548C21.0006 15.5274 20.7349 15.2617 20.4075 15.2617H19.0727C18.7462 15.2617 18.4805 15.5274 18.4805 15.8548C18.4797 16.1822 18.7462 16.4478 19.0727 16.4478Z" fill="#4D4D4D"/>
<path fill-rule="evenodd" clip-rule="evenodd" d="M18.002 17.8461L18.9462 18.7895C19.1771 19.0212 19.5535 19.0212 19.7844 18.7895C20.0161 18.5586 20.0161 18.1822 19.7844 17.9513L18.841 17.0072C18.6093 16.7763 18.2337 16.7763 18.002 17.0072C17.7711 17.2388 17.7711 17.6145 18.002 17.8461Z" fill="#4D4D4D"/>
<path fill-rule="evenodd" clip-rule="evenodd" d="M16.2561 18.0784V19.4132C16.2561 19.7406 16.5218 20.0063 16.8492 20.0063C17.1765 20.0063 17.4422 19.7406 17.4422 19.4132V18.0784C17.4422 17.7518 17.1765 17.4861 16.8492 17.4854C16.5218 17.4854 16.2561 17.7518 16.2561 18.0784Z" fill="#4D4D4D"/>
<path fill-rule="evenodd" clip-rule="evenodd" d="M14.8572 17.0072L13.9138 17.9513C13.6821 18.1822 13.6821 18.5586 13.9138 18.7895C14.1447 19.0212 14.5211 19.0212 14.752 18.7895L15.6962 17.8461C15.9271 17.6145 15.9271 17.2388 15.6962 17.0072C15.4645 16.7763 15.0889 16.7763 14.8572 17.0072Z" fill="#4D4D4D"/>
<path fill-rule="evenodd" clip-rule="evenodd" d="M14.6248 15.2617H13.2908C12.9634 15.2617 12.6977 15.5274 12.6977 15.8548C12.6977 16.1822 12.9634 16.4478 13.2908 16.4478H14.6248C14.9521 16.4478 15.2186 16.1822 15.2178 15.8548C15.2178 15.5274 14.9521 15.2617 14.6248 15.2617Z" fill="#4D4D4D"/>
<path fill-rule="evenodd" clip-rule="evenodd" d="M15.6962 13.8622L14.752 12.9189C14.5211 12.6872 14.1447 12.6872 13.9138 12.9189C13.6821 13.1498 13.6821 13.5262 13.9138 13.7571L14.8572 14.7012C15.0889 14.9321 15.4645 14.9321 15.6962 14.7012C15.9271 14.4695 15.9271 14.0939 15.6962 13.8622Z" fill="#4D4D4D"/>
<path fill-rule="evenodd" clip-rule="evenodd" d="M13.2402 19.2199C12.8179 18.6774 12.8559 17.8906 13.3548 17.3925L13.5082 17.2383H13.2908C12.5269 17.2383 11.907 16.6183 11.907 15.8544C11.907 15.0906 12.5269 14.4706 13.2908 14.4706H13.5082L13.3548 14.3164C12.8361 13.7985 12.8155 12.969 13.2931 12.4257C12.9057 12.3957 12.5087 12.3799 12.1046 12.3799C9.47777 12.3799 7.15217 13.037 5.70826 14.0215C4.60675 14.7727 3.99945 15.7271 3.99945 16.729V17.8756C3.99945 18.2322 4.141 18.5746 4.39324 18.8261C4.64549 19.0783 4.9871 19.2199 5.34373 19.2199H13.2402Z" fill="#4D4D4D"/>
</svg>
