<svg width="48" height="48" viewBox="0 0 48 48" fill="none" xmlns="http://www.w3.org/2000/svg">
<rect width="48" height="48" rx="8.57143" fill="#D4F7F3"/>
<mask id="mask0_7166_33494" style="mask-type:luminance" maskUnits="userSpaceOnUse" x="0" y="0" width="48" height="48">
<rect width="48" height="48" rx="10.2857" fill="white"/>
</mask>
<g mask="url(#mask0_7166_33494)">
<path d="M32.1829 30.709C31.3698 30.709 30.7083 31.3705 30.7083 32.1836C30.7824 34.1372 33.5837 34.1367 33.6576 32.1836C33.6576 31.3705 32.996 30.709 32.1829 30.709Z" fill="#26C8B8"/>
<path d="M24.7205 26.5095L25.9366 25.2934C25.801 25.1387 25.7181 24.9367 25.7181 24.7148V23.7733C25.7614 22.6084 27.4331 22.6093 27.4759 23.7733V24.1149C27.8931 23.9695 28.3659 23.9358 28.8037 24.0248C29.2638 23.3393 30.0457 22.8944 30.9184 22.8944H31.2416V10.5937C31.2416 10.1084 30.8481 9.71484 30.3627 9.71484H15.3001C14.8147 9.71484 14.4212 10.1084 14.4212 10.5937V34.0664H22.9706C22.9207 33.8679 22.8939 33.6607 22.8939 33.4481V30.919C22.8939 30.0463 23.3388 29.2642 24.0244 28.8042C23.8649 27.9941 24.1034 27.1266 24.7205 26.5095ZM25.7181 14.3594C25.7614 13.1945 27.4331 13.1954 27.4759 14.3594V15.3008C27.4327 16.4657 25.761 16.4648 25.7181 15.3008V14.3594ZM25.7181 19.0664C25.7614 17.9015 27.4331 17.9024 27.4759 19.0664V20.0078C27.4327 21.1727 25.761 21.1718 25.7181 20.0078V19.0664ZM19.9447 24.7148C19.9014 25.8797 18.2297 25.8788 18.1868 24.7148V23.7734C18.2301 22.6085 19.9018 22.6094 19.9447 23.7734V24.7148ZM19.9447 20.0078C19.9014 21.1727 18.2297 21.1718 18.1868 20.0078V19.0664C18.2301 17.9015 19.9018 17.9024 19.9447 19.0664V20.0078ZM19.9447 15.3008C19.9014 16.4657 18.2297 16.4648 18.1868 15.3008V14.3594C18.2301 13.1945 19.9018 13.1954 19.9447 14.3594V15.3008ZM23.7103 24.7148C23.6671 25.8797 21.9953 25.8788 21.9525 24.7148V23.7734C21.9957 22.6085 23.6675 22.6094 23.7103 23.7734V24.7148ZM23.7103 20.0078C23.6671 21.1727 21.9953 21.1718 21.9525 20.0078V19.0664C21.9957 17.9015 23.6675 17.9024 23.7103 19.0664V20.0078ZM23.7103 15.3008C23.6671 16.4657 21.9953 16.4648 21.9525 15.3008V14.3594C21.9957 13.1945 23.6675 13.1954 23.7103 14.3594V15.3008Z" fill="#26C8B8"/>
<path d="M35.5623 24.0249C36.0002 23.9359 36.4729 23.9695 36.8901 24.1149V18.125C36.8901 17.8919 36.7975 17.6684 36.6326 17.5036L33.8084 14.6794C33.6006 14.4693 33.2877 14.377 32.9995 14.4428V22.8946H33.4475C34.3202 22.8946 35.1022 23.3395 35.5623 24.0249Z" fill="#26C8B8"/>
<path d="M39.0247 30.1381L38.0646 30.0182C38.007 29.8618 37.9431 29.7077 37.873 29.5563L38.4672 28.7922C38.7109 28.4789 38.6831 28.0331 38.4025 27.7525L36.614 25.9641C36.3333 25.6834 35.8876 25.6557 35.5742 25.8993L34.8102 26.4935C34.6587 26.4235 34.5046 26.3595 34.3483 26.3019L34.2285 25.3419C34.1792 24.9479 33.8444 24.6523 33.4475 24.6523H30.9184C30.5214 24.6523 30.1865 24.9479 30.1374 25.3419L30.0175 26.3019C29.8612 26.3595 29.707 26.4234 29.5556 26.4935L28.7915 25.8993C28.4782 25.6556 28.0326 25.6834 27.7518 25.964L25.9633 27.7525C25.6827 28.0331 25.6549 28.4788 25.8986 28.7922L26.4929 29.5562C26.4228 29.7077 26.3588 29.8619 26.3012 30.0181L25.3411 30.138C24.9472 30.1872 24.6516 30.522 24.6516 30.919V33.4481C24.6516 33.845 24.9472 34.1799 25.3411 34.2291L26.3011 34.349C26.3587 34.5053 26.4227 34.6594 26.4928 34.8109L25.8986 35.5749C25.6549 35.8882 25.6827 36.334 25.9633 36.6146L27.7518 38.4031C28.0325 38.6838 28.4782 38.7115 28.7915 38.4678L29.5556 37.8736C29.7071 37.9437 29.8612 38.0076 30.0175 38.0652L30.1374 39.0252C30.1865 39.4191 30.5214 39.7147 30.9184 39.7147H33.4475C33.8444 39.7147 34.1792 39.4191 34.2285 39.0252L34.3483 38.0652C34.5047 38.0076 34.6588 37.9437 34.8102 37.8736L35.5742 38.4677C35.8877 38.7114 36.3333 38.6837 36.614 38.403L38.4025 36.6145C38.6832 36.3338 38.7109 35.8881 38.4672 35.5748L37.873 34.8107C37.9431 34.6592 38.007 34.5052 38.0646 34.3489L39.0246 34.229C39.4186 34.1799 39.7142 33.845 39.7142 33.448V30.9189C39.7142 30.5221 39.4186 30.1873 39.0247 30.1381ZM32.183 35.416C30.4006 35.416 28.9505 33.9659 28.9505 32.1836C29.113 27.9012 35.2536 27.9024 35.4154 32.1836C35.4154 33.966 33.9653 35.416 32.183 35.416Z" fill="#26C8B8"/>
<path d="M9.71423 20.9492V33.1875C9.71423 33.6729 10.1077 34.0664 10.5931 34.0664H12.6634V20.0703H10.5931C10.1077 20.0703 9.71423 20.4638 9.71423 20.9492Z" fill="#26C8B8"/>
</g>
</svg>
