<svg width="41" height="41" viewBox="0 0 41 41" fill="none" xmlns="http://www.w3.org/2000/svg">
<g clip-path="url(#clip0_6943_37494)">
<path d="M31.8851 0.864258H8.55152C6.34247 0.867818 4.22493 1.74702 2.66298 3.30918C1.10103 4.87133 0.222073 6.98901 0.21875 9.19812L0.21875 32.5322C0.222548 34.7411 1.10183 36.8585 2.66393 38.4203C4.22602 39.9821 6.34352 40.8609 8.55242 40.8643H31.886C34.0952 40.8609 36.213 39.9818 37.7751 38.4197C39.3372 36.8575 40.2163 34.7397 40.2196 32.5304V9.19632C40.2158 6.98722 39.3364 4.86973 37.7742 3.30791C36.2119 1.74609 34.0941 0.867343 31.8851 0.864258ZM18.5517 22.5309C18.5501 24.2985 17.8472 25.9932 16.5975 27.2432C15.3477 28.4931 13.6531 29.1962 11.8855 29.1981C11.6667 29.1981 11.45 29.155 11.2478 29.0713C11.0456 28.9875 10.8619 28.8647 10.7071 28.71C10.5523 28.5552 10.4296 28.3715 10.3458 28.1693C10.2621 27.9671 10.219 27.7504 10.219 27.5315C10.219 27.3127 10.2621 27.0959 10.3458 26.8937C10.4296 26.6915 10.5523 26.5078 10.7071 26.3531C10.8619 26.1983 11.0456 26.0755 11.2478 25.9918C11.45 25.908 11.6667 25.8649 11.8855 25.8649C12.7692 25.864 13.6165 25.5125 14.2413 24.8876C14.8662 24.2627 15.2177 23.4155 15.2186 22.5317H12.7184C12.0553 22.5315 11.4195 22.268 10.9507 21.7992C10.4818 21.3303 10.2183 20.6945 10.2181 20.0314V17.5311C10.218 17.0933 10.3041 16.6598 10.4716 16.2554C10.639 15.8509 10.8845 15.4834 11.1941 15.1739C11.5036 14.8644 11.8711 14.6188 12.2755 14.4514C12.68 14.2839 13.1134 14.1978 13.5512 14.1979H16.0515C16.7145 14.1981 17.3503 14.4616 17.8192 14.9305C18.288 15.3993 18.5515 16.0352 18.5517 16.6982V22.5309ZM30.2185 22.5309C30.2169 24.2985 29.514 25.9932 28.2643 27.2432C27.0145 28.4931 25.3199 29.1962 23.5523 29.1981C23.1103 29.1981 22.6864 29.0225 22.3739 28.71C22.0613 28.3974 21.8858 27.9735 21.8858 27.5315C21.8858 27.0895 22.0613 26.6656 22.3739 26.3531C22.6864 26.0405 23.1103 25.8649 23.5523 25.8649C24.436 25.864 25.2832 25.5125 25.9081 24.8876C26.533 24.2627 26.8845 23.4155 26.8854 22.5317H24.3851C23.7221 22.5315 23.0863 22.268 22.6174 21.7992C22.1486 21.3303 21.8851 20.6945 21.8849 20.0314V17.5311C21.8847 17.0933 21.9709 16.6598 22.1383 16.2554C22.3058 15.8509 22.5513 15.4834 22.8608 15.1739C23.1704 14.8644 23.5379 14.6188 23.9423 14.4514C24.3467 14.2839 24.7802 14.1978 25.218 14.1979H27.7182C28.3813 14.1981 29.0171 14.4616 29.4859 14.9305C29.9548 15.3993 30.2183 16.0352 30.2185 16.6982V22.5309Z" fill="black"/>
</g>
<defs>
<clipPath id="clip0_6943_37494">
<rect width="40" height="40" fill="white" transform="translate(0.21875 0.864258)"/>
</clipPath>
</defs>
</svg>
