    <svg width="12" height="12" viewBox="0 0 12 12" fill="none" xmlns="http://www.w3.org/2000/svg">
<g id="Layer 2">
<path id="Vector" d="M6 7.44827C5.98544 7.44792 5.97092 7.44654 5.95655 7.44414L5.37931 7.32V6.62069H6.62069V7.32L6.04345 7.44414C6.02908 7.44654 6.01456 7.44792 6 7.44827ZM7.03448 8.06896C7.03448 8.12384 7.01268 8.17646 6.97388 8.21526C6.93508 8.25406 6.88246 8.27586 6.82759 8.27586H5.17241C5.11754 8.27586 5.06492 8.25406 5.02612 8.21526C4.98731 8.17646 4.96552 8.12384 4.96552 8.06896V7.65517L0.413794 6.67862V11.7931C0.413794 11.848 0.435592 11.9006 0.474392 11.9394C0.513193 11.9782 0.565818 12 0.62069 12H11.3793C11.4342 12 11.4868 11.9782 11.5256 11.9394C11.5644 11.9006 11.5862 11.848 11.5862 11.7931V6.67862L7.03448 7.6531V8.06896ZM12 2.68965V6C12.0001 6.04741 11.9839 6.09341 11.9542 6.13032C11.9244 6.16723 11.8829 6.1928 11.8366 6.20276L7.03448 7.23103V6.41379C7.03448 6.35892 7.01268 6.30629 6.97388 6.26749C6.93508 6.22869 6.88246 6.20689 6.82759 6.20689H5.17241C5.11754 6.20689 5.06492 6.22869 5.02612 6.26749C4.98731 6.30629 4.96552 6.35892 4.96552 6.41379V7.23103L0.163449 6.20276C0.117098 6.1928 0.0755726 6.16723 0.0458197 6.13032C0.0160668 6.09341 -0.000108398 6.04741 5.46754e-07 6V2.68965C5.46754e-07 2.63478 0.0217985 2.58216 0.0605991 2.54336C0.0993998 2.50456 0.152025 2.48276 0.206897 2.48276H2.89655V1.64069C2.89721 1.20575 3.07028 0.788819 3.37782 0.481272C3.68537 0.173725 4.1023 0.000656674 4.53724 0H7.46276C7.89769 0.000656674 8.31463 0.173725 8.62218 0.481272C8.92972 0.788819 9.10279 1.20575 9.10345 1.64069V2.48276H11.7931C11.848 2.48276 11.9006 2.50456 11.9394 2.54336C11.9782 2.58216 12 2.63478 12 2.68965ZM8.06896 1.64069C8.06902 1.56107 8.05338 1.48221 8.02293 1.40864C7.99249 1.33507 7.94784 1.26822 7.89153 1.21192C7.83523 1.15561 7.76838 1.11096 7.69481 1.08052C7.62124 1.05007 7.54238 1.03443 7.46276 1.03448H4.53724C4.45762 1.03443 4.37876 1.05007 4.30519 1.08052C4.23162 1.11096 4.16477 1.15561 4.10847 1.21192C4.05216 1.26822 4.00751 1.33507 3.97707 1.40864C3.94662 1.48221 3.93098 1.56107 3.93103 1.64069V1.86207H8.06896V1.64069Z" fill="#26C8B8"/>
</g>
</svg>
