<svg width="16" height="17" viewBox="0 0 16 17" fill="none" xmlns="http://www.w3.org/2000/svg">
<path d="M9.3722 2.40877H13.2936C13.5102 2.40877 13.6857 2.58062 13.6857 2.7926V6.63099C13.6857 6.84298 13.5102 7.01483 13.2936 7.01483H9.3722C9.15563 7.01483 8.98006 6.84298 8.98006 6.63099V2.7926C8.98006 2.58062 9.15563 2.40877 9.3722 2.40877ZM9.76434 3.17644V6.24715H12.9015V3.17644H9.76434ZM2.11762 9.89361H6.03902C6.25559 9.89361 6.43116 10.0655 6.43116 10.2775V14.1158C6.43116 14.3278 6.25559 14.4997 6.03902 14.4997H2.11762C1.90105 14.4997 1.72548 14.3278 1.72548 14.1158V10.2775C1.72548 10.0655 1.90105 9.89361 2.11762 9.89361ZM2.50976 10.6613V13.732H5.64688V10.6613H2.50976ZM11.8677 9.31637L14.6127 13.9224C14.7652 14.1783 14.5766 14.4997 14.2739 14.4997H8.78399C8.48134 14.4997 8.29277 14.1783 8.44527 13.9224L11.1902 9.31637C11.3416 9.06246 11.7164 9.06246 11.8677 9.31637ZM11.529 10.2716L9.46673 13.732H13.5912L11.529 10.2716ZM4.27439 1.83301C5.89868 1.83301 7.21544 3.12189 7.21544 4.7118C7.21544 6.30171 5.89868 7.59058 4.27439 7.59058C2.65009 7.59058 1.33334 6.30171 1.33334 4.7118C1.33334 3.12189 2.65009 1.83301 4.27439 1.83301ZM4.27439 2.60068C3.08324 2.60068 2.11762 3.54586 2.11762 4.7118C2.11762 5.87773 3.08324 6.82291 4.27439 6.82291C5.46554 6.82291 6.43116 5.87773 6.43116 4.7118C6.43116 3.54586 5.46554 2.60068 4.27439 2.60068Z" fill="white" stroke="white" strokeWidth="0.5"/>
</svg>
