<svg width="16" height="17" viewBox="0 0 16 17" fill="none" xmlns="http://www.w3.org/2000/svg">
<path d="M2 4.5H3.33333H14" fill="white"/>
<path d="M2 4.5H3.33333H14" stroke="white" strokeWidth="1.5" strokeLinecap="round" strokeLinejoin="round"/>
<path d="M5.33333 4.49967V3.16634C5.33333 2.81272 5.4738 2.47358 5.72385 2.22353C5.9739 1.97348 6.31304 1.83301 6.66666 1.83301H9.33333C9.68695 1.83301 10.0261 1.97348 10.2761 2.22353C10.5262 2.47358 10.6667 2.81272 10.6667 3.16634V4.49967M12.6667 4.49967V13.833C12.6667 14.1866 12.5262 14.5258 12.2761 14.7758C12.0261 15.0259 11.687 15.1663 11.3333 15.1663H4.66666C4.31304 15.1663 3.9739 15.0259 3.72385 14.7758C3.4738 14.5258 3.33333 14.1866 3.33333 13.833V4.49967H12.6667Z" stroke="white" strokeWidth="1.5" strokeLinecap="round" strokeLinejoin="round"/>
<path d="M9.33333 7.83301V11.833" stroke="white" strokeWidth="1.5" strokeLinecap="round" strokeLinejoin="round"/>
<path d="M6.66667 7.83301V11.833" stroke="white" strokeWidth="1.5" strokeLinecap="round" strokeLinejoin="round"/>
</svg>
