<svg width="16" height="17" viewBox="0 0 16 17" fill="none" xmlns="http://www.w3.org/2000/svg">
<path d="M7.33333 3.16699H2.66666C2.31304 3.16699 1.9739 3.30747 1.72385 3.55752C1.4738 3.80756 1.33333 4.1467 1.33333 4.50033V13.8337C1.33333 14.1873 1.4738 14.5264 1.72385 14.7765C1.9739 15.0265 2.31304 15.167 2.66666 15.167H12C12.3536 15.167 12.6928 15.0265 12.9428 14.7765C13.1929 14.5264 13.3333 14.1873 13.3333 13.8337V9.16699" stroke="white" strokeWidth="1.5" strokeLinecap="round" strokeLinejoin="round"/>
<path d="M12.3333 2.16714C12.5985 1.90193 12.9583 1.75293 13.3333 1.75293C13.7084 1.75293 14.0681 1.90193 14.3333 2.16714C14.5985 2.43236 14.7475 2.79207 14.7475 3.16714C14.7475 3.54222 14.5985 3.90193 14.3333 4.16714L7.99999 10.5005L5.33333 11.1671L5.99999 8.50048L12.3333 2.16714Z" stroke="white" strokeWidth="1.5" strokeLinecap="round" strokeLinejoin="round"/>
</svg>
