<svg width="23" height="19" viewBox="0 0 23 19" fill="none" xmlns="http://www.w3.org/2000/svg">
<path d="M5.16666 6.33334H19.7333V1.9C19.7333 0.850651 18.8827 0 17.8333 0H2.5911C1.54175 0 0.691101 0.850651 0.691101 1.9V12.0333C0.691101 13.0827 1.54175 13.9333 2.5911 13.9333H3.26666V17.1C3.26666 17.356 3.42064 17.5874 3.65755 17.6851C3.89096 17.7825 4.16494 17.7306 4.3478 17.5478L7.96223 13.9333H9.59999V10.1333H5.16666C4.81659 10.1333 4.53332 9.85007 4.53332 9.5C4.53332 9.14994 4.81659 8.86667 5.16666 8.86667H9.66409C9.76002 8.39577 9.96939 7.97 10.2495 7.6H5.16666C4.81659 7.6 4.53332 7.31673 4.53332 6.96667C4.53332 6.6166 4.81659 6.33334 5.16666 6.33334ZM5.16666 3.8H15.3C15.6501 3.8 15.9333 4.08327 15.9333 4.43333C15.9333 4.7834 15.6501 5.06667 15.3 5.06667H5.16666C4.81659 5.06667 4.53332 4.7834 4.53332 4.43333C4.53332 4.08327 4.81659 3.8 5.16666 3.8Z" fill="#B693F8"/>
<path d="M20.4089 7.59961H12.7666C11.7189 7.59961 10.8666 8.45191 10.8666 9.49961V14.5663C10.8666 15.614 11.7189 16.4663 12.7666 16.4663H16.3044L18.6522 18.814C18.835 18.9969 19.109 19.0488 19.3424 18.9514C19.5793 18.8537 19.7333 18.6223 19.7333 18.3663V16.4663H20.4089C21.4566 16.4663 22.3089 15.614 22.3089 14.5663V9.49961C22.3089 8.45191 21.4566 7.59961 20.4089 7.59961ZM18.2811 11.8474L16.3811 13.7474C16.1337 13.9948 15.7329 13.9948 15.4855 13.7474L14.5355 12.7974C14.2881 12.55 14.2881 12.1492 14.5355 11.9018C14.7829 11.6544 15.1837 11.6544 15.4311 11.9018L15.9333 12.404L17.3855 10.9518C17.6329 10.7044 18.0337 10.7044 18.2811 10.9518C18.5285 11.1992 18.5285 11.6 18.2811 11.8474Z" fill="#B693F8"/>
</svg>
