<svg width="15" height="13" viewBox="0 0 15 13" fill="none" xmlns="http://www.w3.org/2000/svg">
<g id="Group">
<path id="Vector" d="M3.44446 4.55523H13.1556V1.59967C13.1556 0.900109 12.5885 0.333008 11.8889 0.333008H1.72742C1.02786 0.333008 0.460754 0.900109 0.460754 1.59967V8.35523C0.460754 9.0548 1.02786 9.6219 1.72742 9.6219H2.17779V11.733C2.17779 11.9037 2.28045 12.0579 2.43839 12.1231C2.59399 12.188 2.77664 12.1534 2.89855 12.0315L5.30818 9.6219H6.40002V7.08857H3.44446C3.21108 7.08857 3.02224 6.89972 3.02224 6.66634C3.02224 6.43297 3.21108 6.24412 3.44446 6.24412H6.44274C6.5067 5.93018 6.64628 5.64634 6.83302 5.39968H3.44446C3.21108 5.39968 3.02224 5.21083 3.02224 4.97745C3.02224 4.74408 3.21108 4.55523 3.44446 4.55523ZM3.44446 2.86634H10.2C10.4334 2.86634 10.6222 3.05519 10.6222 3.28856C10.6222 3.52194 10.4334 3.71079 10.2 3.71079H3.44446C3.21108 3.71079 3.02224 3.52194 3.02224 3.28856C3.02224 3.05519 3.21108 2.86634 3.44446 2.86634Z" fill="#ffffff"/>
<path id="Vector_2" d="M13.6059 5.39941H8.51111C7.81264 5.39941 7.24445 5.96761 7.24445 6.66608V10.0439C7.24445 10.7423 7.81264 11.3105 8.51111 11.3105H10.8696L12.4348 12.8757C12.5567 12.9976 12.7394 13.0322 12.895 12.9672C13.0529 12.9021 13.1556 12.7479 13.1556 12.5772V11.3105H13.6059C14.3044 11.3105 14.8726 10.7423 14.8726 10.0439V6.66608C14.8726 5.96761 14.3044 5.39941 13.6059 5.39941ZM12.1874 8.23126L10.9207 9.49793C10.7558 9.66285 10.4886 9.66285 10.3237 9.49793L9.69035 8.86459C9.52543 8.69967 9.52543 8.43246 9.69035 8.26754C9.85527 8.10262 10.1225 8.10262 10.2874 8.26754L10.6222 8.60236L11.5904 7.63421C11.7553 7.46929 12.0225 7.46929 12.1874 7.63421C12.3524 7.79913 12.3524 8.06634 12.1874 8.23126Z" fill="#ffffff"/>
</g>
</svg>
