<svg width="24" height="24" viewBox="0 0 24 24" fill="none" xmlns="http://www.w3.org/2000/svg">
<path d="M9.09374 1H2.5312C1.68686 1 1 1.68686 1 2.5312V6.46873C1 7.31324 1.68686 8.00009 2.5312 8.00009H9.09374C9.93825 8.00009 10.6251 7.31324 10.6251 6.46873V2.5312C10.6251 1.68686 9.93825 1 9.09374 1Z" fill="#4D4D4D"/>
<path d="M9.09368 9.75H2.53114C1.68679 9.75 0.999939 10.4369 0.999939 11.2814V20.4689C0.999939 21.3133 1.68679 22.0001 2.53114 22.0001H9.09368C9.93819 22.0001 10.625 21.3133 10.625 20.4689V11.2814C10.625 10.4369 9.93819 9.75 9.09368 9.75Z" fill="#4D4D4D"/>
<path d="M20.4688 15H13.9062C13.0617 15 12.3749 15.6869 12.3749 16.5314V20.4689C12.3749 21.3132 13.0617 22.0001 13.9062 22.0001H20.4688C21.3131 22.0001 22 21.3132 22 20.4689V16.5314C22 15.6869 21.3131 15 20.4688 15Z" fill="#4D4D4D"/>
<path d="M20.4688 1H13.9062C13.0617 1 12.3749 1.68686 12.3749 2.5312V11.7188C12.3749 12.5633 13.0617 13.2501 13.9062 13.2501H20.4688C21.3131 13.2501 22 12.5633 22 11.7188V2.5312C22 1.68686 21.3131 1 20.4688 1Z" fill="#4D4D4D"/>
</svg>
