<svg width="12" height="10" viewBox="0 0 12 10" fill="none" xmlns="http://www.w3.org/2000/svg">
<g id="Group 89">
<g id="Group">
<g id="Group_2">
<path id="Vector" d="M11.8944 1.38428L8.255 5.00019L11.8944 8.61611C11.9601 8.4786 12.0001 8.32658 12.0001 8.16426V1.83613C12.0001 1.67378 11.9601 1.52179 11.8944 1.38428Z" fill="#26C8B8"/>
</g>
</g>
<g id="Group_3">
<g id="Group_4">
<path id="Vector_2" d="M10.9454 0.78125H1.05476C0.892405 0.78125 0.740413 0.821164 0.602905 0.886953L5.25438 5.51499C5.66567 5.92628 6.33448 5.92628 6.74576 5.51499L11.3972 0.886953C11.2597 0.821164 11.1077 0.78125 10.9454 0.78125Z" fill="#26C8B8"/>
</g>
</g>
<g id="Group_5">
<g id="Group_6">
<path id="Vector_3" d="M0.105703 1.38428C0.0399141 1.52179 0 1.67378 0 1.83613V8.16426C0 8.32661 0.0399141 8.47862 0.105703 8.61611L3.74506 5.00019L0.105703 1.38428Z" fill="#26C8B8"/>
</g>
</g>
<g id="Group_7">
<g id="Group_8">
<path id="Vector_4" d="M7.75788 5.49707L7.24289 6.01206C6.5576 6.69735 5.44252 6.69735 4.75723 6.01206L4.24226 5.49707L0.602905 9.11299C0.740413 9.17877 0.892405 9.21869 1.05476 9.21869H10.9454C11.1077 9.21869 11.2597 9.17877 11.3972 9.11299L7.75788 5.49707Z" fill="#26C8B8"/>
</g>
</g>
</g>
</svg>
