<svg width="24" height="24" viewBox="0 0 24 24" fill="none" xmlns="http://www.w3.org/2000/svg">
<path d="M17.7281 16.6963C17.1589 16.6963 16.6959 17.1594 16.6959 17.7285C16.7477 19.096 18.7087 19.0957 18.7603 17.7285C18.7603 17.1594 18.2973 16.6963 17.7281 16.6963Z" fill="#4D4D4D"/>
<path d="M12.5043 13.7563L13.3556 12.905C13.2607 12.7967 13.2027 12.6553 13.2027 12.4999V11.841C13.233 11.0255 14.4032 11.0261 14.4332 11.841V12.08C14.7252 11.9782 15.0561 11.9546 15.3626 12.0169C15.6847 11.5371 16.232 11.2257 16.8429 11.2257H17.0691V2.61523C17.0691 2.27546 16.7937 2 16.4539 2H5.91009C5.57032 2 5.29486 2.27546 5.29486 2.61523V19.0461H11.2794C11.2445 18.9071 11.2257 18.7621 11.2257 18.6133V16.8429C11.2257 16.232 11.5372 15.6846 12.0171 15.3625C11.9055 14.7955 12.0724 14.1882 12.5043 13.7563ZM13.2027 5.25118C13.233 4.43575 14.4032 4.43637 14.4332 5.25118V5.91018C14.4029 6.72561 13.2327 6.72499 13.2027 5.91018V5.25118ZM13.2027 8.54609C13.233 7.73066 14.4032 7.73127 14.4332 8.54609V9.20504C14.4029 10.0205 13.2327 10.0199 13.2027 9.20504V8.54609ZM9.16128 12.5C9.13101 13.3154 7.96079 13.3148 7.93081 12.5V11.841C7.96108 11.0256 9.13129 11.0262 9.16128 11.841V12.5ZM9.16128 9.20508C9.13101 10.0205 7.96079 10.0199 7.93081 9.20508V8.54609C7.96108 7.73066 9.13129 7.73127 9.16128 8.54609V9.20508ZM9.16128 5.91014C9.13101 6.72557 7.96079 6.72495 7.93081 5.91014V5.25118C7.96108 4.43575 9.13129 4.43637 9.16128 5.25118V5.91014ZM11.7972 12.5C11.767 13.3154 10.5967 13.3148 10.5668 12.5V11.841C10.597 11.0256 11.7672 11.0262 11.7972 11.841V12.5ZM11.7972 9.20508C11.767 10.0205 10.5967 10.0199 10.5668 9.20508V8.54609C10.597 7.73066 11.7672 7.73127 11.7972 8.54609V9.20508ZM11.7972 5.91014C11.767 6.72557 10.5967 6.72495 10.5668 5.91014V5.25118C10.597 4.43575 11.7672 4.43637 11.7972 5.25118V5.91014Z" fill="#4D4D4D"/>
<path d="M20.0937 12.017C20.4002 11.9547 20.7311 11.9783 21.0231 12.0801V7.88713C21.0231 7.72397 20.9583 7.56749 20.8429 7.45212L18.8659 5.47517C18.7205 5.32812 18.5014 5.26353 18.2997 5.30954V11.2258H18.6133C19.2242 11.2258 19.7716 11.5372 20.0937 12.017Z" fill="#4D4D4D"/>
<path d="M22.5173 16.2961L21.8453 16.2121C21.805 16.1027 21.7602 15.9948 21.7112 15.8888L22.1271 15.354C22.2977 15.1346 22.2782 14.8226 22.0818 14.6261L20.8298 13.3743C20.6334 13.1778 20.3214 13.1584 20.102 13.3289L19.5672 13.7449C19.4611 13.6958 19.3533 13.6511 19.2439 13.6108L19.16 12.9387C19.1255 12.663 18.8912 12.4561 18.6133 12.4561H16.8429C16.565 12.4561 16.3306 12.663 16.2962 12.9387L16.2123 13.6107C16.1029 13.651 15.995 13.6958 15.8889 13.7448L15.3541 13.3289C15.1348 13.1584 14.8229 13.1778 14.6263 13.3742L13.3744 14.6261C13.1779 14.8226 13.1585 15.1346 13.3291 15.3539L13.745 15.8888C13.696 15.9948 13.6512 16.1027 13.6109 16.2121L12.9388 16.296C12.6631 16.3305 12.4562 16.5648 12.4562 16.8427V18.6131C12.4562 18.8909 12.6631 19.1253 12.9388 19.1598L13.6108 19.2437C13.6512 19.3531 13.6959 19.461 13.745 19.567L13.3291 20.1019C13.1585 20.3212 13.1779 20.6332 13.3744 20.8296L14.6263 22.0815C14.8228 22.2781 15.1348 22.2975 15.3541 22.1269L15.889 21.7109C15.995 21.76 16.1029 21.8047 16.2123 21.8451L16.2962 22.5171C16.3306 22.7928 16.565 22.9997 16.8429 22.9997H18.6133C18.8912 22.9997 19.1255 22.7928 19.16 22.5171L19.2439 21.8451C19.3533 21.8047 19.4612 21.76 19.5672 21.7109L20.102 22.1268C20.3214 22.2974 20.6333 22.278 20.8298 22.0815L22.0818 20.8295C22.2783 20.6331 22.2977 20.3211 22.1271 20.1018L21.7111 19.5669C21.7602 19.4609 21.8049 19.353 21.8453 19.2436L22.5173 19.1597C22.793 19.1253 23 18.8909 23 18.613V16.8427C23 16.5649 22.793 16.3305 22.5173 16.2961ZM17.7281 19.9906C16.4805 19.9906 15.4654 18.9756 15.4654 17.7279C15.5791 14.7302 19.8775 14.7311 19.9908 17.728C19.9908 18.9756 18.9757 19.9906 17.7281 19.9906Z" fill="#4D4D4D"/>
<path d="M2 9.86426V18.4311C2 18.7708 2.27546 19.0463 2.61523 19.0463H4.06444V9.24902H2.61523C2.27546 9.24902 2 9.52448 2 9.86426Z" fill="#4D4D4D"/>
</svg>
