<svg width="16" height="16" viewBox="0 0 16 16" fill="none" xmlns="http://www.w3.org/2000/svg">
<path d="M9.65278 14.6667C9.47703 14.6667 9.31184 14.5791 9.21367 14.4319L8.31486 13.0834H7.27778C6.98644 13.0834 6.75 12.847 6.75 12.5556C6.75 12.2643 6.98644 12.0278 7.27778 12.0278H8.59722C8.7735 12.0278 8.93817 12.116 9.03633 12.2627L9.58734 13.0892L10.7638 10.7358C10.8503 10.5638 11.0229 10.4519 11.2155 10.4445C11.4203 10.4398 11.5892 10.5353 11.6884 10.6999L13.1182 13.0834H14.1389C14.4302 13.0834 14.6667 13.3198 14.6667 13.6112C14.6667 13.9025 14.4302 14.139 14.1389 14.139H12.8194C12.6342 14.139 12.4621 14.0418 12.3671 13.883L11.2783 12.0685L10.1251 14.3754C10.0407 14.5438 9.87339 14.6546 9.6855 14.6662C9.67495 14.6667 9.66386 14.6667 9.65278 14.6667Z" fill="#040201"/>
<path d="M6.74997 7.27778C8.20739 7.27778 9.38887 6.09631 9.38887 4.63889C9.38887 3.18147 8.20739 2 6.74997 2C5.29256 2 4.11108 3.18147 4.11108 4.63889C4.11108 6.09631 5.29256 7.27778 6.74997 7.27778Z" fill="#040201"/>
<path d="M5.69445 12.5552C5.69445 11.6823 6.40484 10.9719 7.27778 10.9719H8.59723C8.87114 10.9719 9.13503 11.0421 9.36673 11.1709L9.82009 10.2636C10.0507 9.80393 10.4898 9.50256 10.9886 9.42234C10.5083 8.76526 9.73776 8.33301 8.86112 8.33301H4.63889C3.1817 8.33301 2 9.5147 2 10.9719V12.6872C2 12.9057 2.17733 13.083 2.39583 13.083H5.79156C5.73245 12.9173 5.69445 12.741 5.69445 12.5552Z" fill="#040201"/>
</svg>
