<svg width="12" height="14" viewBox="0 0 12 14" fill="none" xmlns="http://www.w3.org/2000/svg">
<g id="Group">
<path id="Vector" d="M9.77545 5.61101V3.95463H11.2856C11.4282 3.95463 11.5567 3.86874 11.6113 3.73703C11.6658 3.60532 11.6357 3.45371 11.5348 3.3529L9.26957 1.08762C9.13193 0.949961 8.90874 0.949961 8.77109 1.08762L6.50581 3.3529C6.405 3.45371 6.37485 3.60532 6.42939 3.73703C6.48395 3.86874 6.61249 3.95463 6.75503 3.95463H8.26528V5.61101C4.91297 6.54856 5.49884 11.4288 9.02041 11.5056C12.5426 11.4285 13.1272 6.54795 9.77545 5.61101ZM9.02036 9.99539C8.20016 9.99539 7.53524 9.33046 7.53524 8.51026C7.60804 6.54241 10.433 6.54292 10.5055 8.51029C10.5055 9.33046 9.84056 9.99539 9.02036 9.99539Z" fill="#B693F8"/>
<path id="Vector_2" d="M5.97492 5.86739C5.97492 4.21312 4.63387 2.87207 2.9796 2.87207C-0.542859 2.94915 -1.12697 7.82989 2.22452 8.76662V9.64286H0.714324C0.519661 9.64286 0.361843 9.80068 0.361843 9.99534V10.8006C0.361843 10.9952 0.519661 11.1531 0.714324 11.1531H2.22452V12.6632C2.22452 12.8579 2.38234 13.0157 2.577 13.0157H3.38223C3.5769 13.0157 3.73471 12.8579 3.73471 12.6632V11.153H5.24491C5.43957 11.153 5.59739 10.9952 5.59739 10.8006V9.99532C5.59739 9.80066 5.43957 9.64284 5.24491 9.64284H3.73471V8.76659C5.02341 8.43192 5.97492 7.26082 5.97492 5.86739ZM2.9796 7.35251C2.1594 7.35251 1.49448 6.68759 1.49448 5.86739C1.56728 3.89953 4.39221 3.90005 4.46473 5.86741C4.46473 6.68759 3.79981 7.35251 2.9796 7.35251Z" fill="#B693F8"/>
</g>
</svg>
