<svg width="15" height="15" viewBox="0 0 15 15" fill="none" xmlns="http://www.w3.org/2000/svg">
<g id="Group 83">
<g id="Group">
<g id="Group_2">
<path id="Vector" d="M13.8989 5.85194C13.3892 5.42336 12.6092 5.47441 12.1666 6.00214L11.9006 6.31681L13.7858 7.89862L14.0398 7.5851C14.4766 7.06557 14.4214 6.28966 13.8989 5.85194Z" fill="white"/>
</g>
</g>
<g id="Group_3">
<g id="Group_4">
<path id="Vector_2" d="M8.574 10.2539L8.4337 10.4199C8.31194 10.5657 8.22422 10.74 8.18017 10.9246L7.79886 12.5204C7.76282 12.6714 7.81529 12.83 7.93424 12.9297C8.05001 13.027 8.21331 13.0553 8.36083 12.9922L9.86646 12.3393C10.0407 12.2636 10.1969 12.1471 10.3187 12.0025L10.4595 11.8359L8.574 10.2539Z" fill="white"/>
</g>
</g>
<g id="Group_5">
<g id="Group_6">
<path id="Vector_3" d="M11.3709 6.94336L9.10352 9.62616L10.9889 11.2082L13.2562 8.52517L11.3709 6.94336Z" fill="white"/>
</g>
</g>
<g id="Group_7">
<g id="Group_8">
<path id="Vector_4" d="M10.6152 2.48523L9.0571 1.00482C8.9098 0.865172 8.72859 0.782922 8.5376 0.729492V3.1277H10.9726C10.9217 2.88407 10.7976 2.65837 10.6152 2.48523Z" fill="white"/>
</g>
</g>
<g id="Group_9">
<g id="Group_10">
<path id="Vector_5" d="M7.38228 10.7334C7.4556 10.4266 7.6018 10.1361 7.80451 9.89336L10.9989 6.11353V3.94871H8.1274C7.90066 3.94871 7.71718 3.76524 7.71718 3.5385V0.666992H1.56396C0.885353 0.666992 0.333313 1.21903 0.333313 1.89764V13.4384C0.333313 14.117 0.885353 14.669 1.56396 14.669H9.76826C10.4469 14.669 10.9989 14.117 10.9989 13.4384V12.4686L10.9456 12.5317C10.7441 12.7716 10.4841 12.9651 10.1945 13.0913L8.68745 13.7447C8.26269 13.9282 7.771 13.8632 7.40714 13.5584C7.0478 13.2568 6.89197 12.7861 7.00092 12.3294L7.38228 10.7334ZM2.38439 3.12828H6.48654C6.71328 3.12828 6.89675 3.31176 6.89675 3.5385C6.89675 3.76524 6.71328 3.94871 6.48654 3.94871H2.38439C2.15765 3.94871 1.97417 3.76524 1.97417 3.5385C1.97417 3.31176 2.15765 3.12828 2.38439 3.12828ZM2.38439 5.61692H8.94783C9.17457 5.61692 9.35804 5.8004 9.35804 6.02714C9.35804 6.25388 9.17457 6.43735 8.94783 6.43735H2.38439C2.15765 6.43735 1.97417 6.25388 1.97417 6.02714C1.97417 5.8004 2.15765 5.61692 2.38439 5.61692ZM5.66611 11.3599H2.38439C2.15765 11.3599 1.97417 11.1765 1.97417 10.9497C1.97417 10.723 2.15765 10.5395 2.38439 10.5395H5.66611C5.89285 10.5395 6.07632 10.723 6.07632 10.9497C6.07632 11.1765 5.89285 11.3599 5.66611 11.3599ZM2.38439 8.89864C2.15765 8.89864 1.97417 8.71517 1.97417 8.48843C1.97417 8.26169 2.15765 8.07821 2.38439 8.07821H7.30697C7.53371 8.07821 7.71718 8.26169 7.71718 8.48843C7.71718 8.71517 7.53371 8.89864 7.30697 8.89864H2.38439Z" fill="white"/>
</g>
</g>
</g>
</svg>
