<svg width="61" height="51" viewBox="0 0 61 51" fill="none" xmlns="http://www.w3.org/2000/svg">
<g id="Group">
<path id="Vector" d="M36.9981 9.02969C39.7819 10.7751 41.7339 13.7287 42.0893 17.1571C43.2246 17.6876 44.4847 17.9926 45.8206 17.9926C50.6976 17.9926 54.6505 14.0397 54.6505 9.16343C54.6505 4.28638 50.6976 0.333496 45.8206 0.333496C40.9901 0.334999 37.0718 4.21725 36.9981 9.02969ZM31.2135 27.1088C36.0905 27.1088 40.0434 23.1552 40.0434 18.2789C40.0434 13.4026 36.0898 9.4497 31.2135 9.4497C26.3372 9.4497 22.382 13.4033 22.382 18.2796C22.382 23.1559 26.3372 27.1088 31.2135 27.1088ZM34.959 27.7106H27.4664C21.2324 27.7106 16.1608 32.7831 16.1608 39.017V48.1798L16.1841 48.3233L16.8152 48.521C22.7645 50.3798 27.933 50.9997 32.1872 50.9997C40.4965 50.9997 45.3127 48.6306 45.6094 48.4796L46.1993 48.1813H46.2624V39.017C46.2646 32.7831 41.193 27.7106 34.959 27.7106ZM49.5676 18.5952H42.1329C42.0525 21.5698 40.7827 24.2484 38.7744 26.1749C44.3156 27.8226 48.3699 32.9611 48.3699 39.0306V41.8542C55.7107 41.5852 59.9408 39.5047 60.2196 39.3649L60.8094 39.0659H60.8725V29.9001C60.8725 23.6669 55.8008 18.5952 49.5676 18.5952ZM15.7198 17.9941C17.4471 17.9941 19.0543 17.49 20.4157 16.6312C20.8485 13.8083 22.3617 11.3416 24.5234 9.66158C24.5324 9.49628 24.5482 9.33249 24.5482 9.16568C24.5482 4.28863 20.5945 0.33575 15.7198 0.33575C10.8419 0.33575 6.88982 4.28863 6.88982 9.16568C6.88982 14.0405 10.8419 17.9941 15.7198 17.9941ZM23.6496 26.1749C21.651 24.2582 20.3857 21.5939 20.2933 18.6373C20.0175 18.617 19.7448 18.5952 19.4638 18.5952H11.972C5.73799 18.5952 0.666336 23.6669 0.666336 29.9001V39.0644L0.689628 39.2056L1.32077 39.4047C6.09338 40.8947 10.3528 41.5814 14.0525 41.7978V39.0306C14.054 32.9611 18.1068 27.8241 23.6496 26.1749Z" fill="#26C8B8"/>
</g>
</svg>
