<svg width="14" height="14" viewBox="0 0 14 14" fill="none" xmlns="http://www.w3.org/2000/svg">
<g id="Group 86">
<path id="Vector" d="M13.541 3.39266L10.941 0.792666C10.9005 0.752504 10.8524 0.72073 10.7996 0.699165C10.7469 0.677601 10.6903 0.66667 10.6333 0.666999H9.76662V4.13366C9.76662 4.36352 9.67531 4.58396 9.51278 4.74649C9.35025 4.90902 9.12981 5.00033 8.89995 5.00033H5.43329C5.20344 5.00033 4.983 4.90902 4.82046 4.74649C4.65793 4.58396 4.56662 4.36352 4.56662 4.13366V0.666999H1.96663C1.62184 0.666999 1.29118 0.803963 1.04739 1.04776C0.80359 1.29156 0.666626 1.62222 0.666626 1.967V12.367C0.666626 12.7118 0.80359 13.0424 1.04739 13.2862C1.29118 13.53 1.62184 13.667 1.96663 13.667H2.83329V9.76699C2.83329 9.42221 2.97026 9.09155 3.21405 8.84776C3.45785 8.60396 3.78851 8.467 4.13329 8.467H10.2C10.5447 8.467 10.8754 8.60396 11.1192 8.84776C11.363 9.09155 11.5 9.42221 11.5 9.76699V13.667H12.3666C12.7114 13.667 13.0421 13.53 13.2859 13.2862C13.5297 13.0424 13.6666 12.7118 13.6666 12.367V3.70033C13.6669 3.6433 13.656 3.58677 13.6345 3.53397C13.6129 3.48118 13.5811 3.43316 13.541 3.39266Z" fill="white"/>
<path id="Vector_2" d="M5.43323 0.666992H8.89989V4.13366H5.43323V0.666992Z" fill="white"/>
<path id="Vector_3" d="M10.1999 9.33398H4.13328C4.01836 9.33398 3.90814 9.37964 3.82687 9.4609C3.74561 9.54217 3.69995 9.65239 3.69995 9.76732V13.6673H10.6333V9.76732C10.6333 9.65239 10.5876 9.54217 10.5064 9.4609C10.4251 9.37964 10.3149 9.33398 10.1999 9.33398Z" fill="white"/>
</g>
</svg>
