<svg width="12" height="12" viewBox="0 0 12 12" fill="none" xmlns="http://www.w3.org/2000/svg">
<path d="M7.02914 1.43182H9.97019C10.1326 1.43182 10.2643 1.56071 10.2643 1.7197V4.59848C10.2643 4.75748 10.1326 4.88636 9.97019 4.88636H7.02914C6.86671 4.88636 6.73504 4.75748 6.73504 4.59848V1.7197C6.73504 1.56071 6.86671 1.43182 7.02914 1.43182ZM7.32325 2.00758V4.31061H9.67608V2.00758H7.32325ZM1.58821 7.04545H4.52925C4.69168 7.04545 4.82336 7.17434 4.82336 7.33333V10.2121C4.82336 10.3711 4.69168 10.5 4.52925 10.5H1.58821C1.42578 10.5 1.2941 10.3711 1.2941 10.2121V7.33333C1.2941 7.17434 1.42578 7.04545 1.58821 7.04545ZM1.88231 7.62121V9.92424H4.23515V7.62121H1.88231ZM8.90076 6.61252L10.9595 10.0671C11.0739 10.259 10.9324 10.5 10.7055 10.5H6.58799C6.361 10.5 6.21957 10.259 6.33394 10.0671L8.39268 6.61252C8.50616 6.42209 8.78727 6.42209 8.90076 6.61252ZM8.64672 7.32891L7.10004 9.92424H10.1934L8.64672 7.32891ZM3.20578 1C4.42401 1 5.41157 1.96666 5.41157 3.15909C5.41157 4.35152 4.42401 5.31818 3.20578 5.31818C1.98756 5.31818 1 4.35152 1 3.15909C1 1.96666 1.98756 1 3.20578 1ZM3.20578 1.57576C2.31242 1.57576 1.58821 2.28464 1.58821 3.15909C1.58821 4.03354 2.31242 4.74242 3.20578 4.74242C4.09915 4.74242 4.82336 4.03354 4.82336 3.15909C4.82336 2.28464 4.09915 1.57576 3.20578 1.57576Z" fill="#040201" stroke="#040201" strokeWidth="0.5"/>
</svg>
