<svg width="16" height="16" viewBox="0 0 16 16" fill="none" xmlns="http://www.w3.org/2000/svg">
<g id="Icon">
<path id="Vector" d="M12.6667 2H3.33333C2.59695 2 2 2.59695 2 3.33333V12.6667C2 13.403 2.59695 14 3.33333 14H12.6667C13.403 14 14 13.403 14 12.6667V3.33333C14 2.59695 13.403 2 12.6667 2Z" stroke="#B693F8" strokeWidth="1.5" strokeLinecap="round" strokeLinejoin="round"/>
<path id="Vector_2" d="M14 10.0003L10.6667 6.66699L3.33337 14.0003" stroke="#B693F8" strokeWidth="1.5" strokeLinecap="round" strokeLinejoin="round"/>
<path id="Vector_3" d="M5.66663 6.66699C6.21891 6.66699 6.66663 6.21928 6.66663 5.66699C6.66663 5.11471 6.21891 4.66699 5.66663 4.66699C5.11434 4.66699 4.66663 5.11471 4.66663 5.66699C4.66663 6.21928 5.11434 6.66699 5.66663 6.66699Z" stroke="#B693F8" strokeWidth="1.5" strokeLinecap="round" strokeLinejoin="round"/>
</g>
</svg>
