<svg width="14" height="20" viewBox="0 0 14 20" fill="none" xmlns="http://www.w3.org/2000/svg">
<g id="Group">
<g id="Group_2">
<path id="Vector" d="M1.572 6.36039V8.26408H1.44534C0.6481 8.26408 -0.00012207 8.9123 -0.00012207 9.70954V17.6707C-0.00012207 18.468 0.6481 19.1162 1.44534 19.1162H12.5545C13.3518 19.1162 14 18.468 14 17.6707V9.70581C14 8.90857 13.3518 8.26035 12.5545 8.26035H12.5173V6.35666C12.5173 3.33908 10.0622 0.884033 7.04463 0.884033C4.02705 0.887759 1.572 3.34281 1.572 6.36039ZM7.85677 14.0422C7.74501 14.1241 7.71521 14.2024 7.71521 14.3328C7.71893 14.9177 7.71893 15.4988 7.71893 16.0837C7.73011 16.3259 7.60717 16.5643 7.3911 16.6723C6.88071 16.9331 6.37033 16.568 6.37033 16.0837V16.08C6.37033 15.4951 6.37033 14.9102 6.37406 14.3253C6.37406 14.2061 6.34798 14.1279 6.24367 14.0496C5.71466 13.6585 5.53957 12.9916 5.80407 12.4067C6.06112 11.8367 6.69072 11.5015 7.28306 11.6207C7.94246 11.7548 8.40068 12.2838 8.40813 12.9432C8.40813 13.4014 8.22559 13.774 7.85677 14.0422ZM3.96744 6.36039C3.96744 4.6616 5.34957 3.2832 7.04463 3.2832C8.74342 3.2832 10.1218 4.66533 10.1218 6.36039V8.26408H3.96744V6.36039Z" fill="#040201"/>
</g>
</g>
</svg>
