<svg width="20" height="20" viewBox="0 0 20 20" fill="none" xmlns="http://www.w3.org/2000/svg">
<g clip-path="url(#clip0_6972_32533)">
<path d="M6.25 16C9.70178 16 12.5 13.0899 12.5 9.5C12.5 5.91015 9.70178 3 6.25 3C2.79822 3 0 5.91015 0 9.5C0 13.0899 2.79822 16 6.25 16Z" fill="#F93232"/>
<path d="M13.75 3C12.3463 3 11.055 3.4875 10.0125 4.3H10V4.3091C9.7525 4.5028 9.525 4.7212 9.30812 4.95H10.6919C10.8844 5.15345 11.0619 5.3712 11.2262 5.6H8.76875C8.6175 5.80735 8.47875 6.0238 8.35187 6.25H11.6419C11.7594 6.4606 11.87 6.6751 11.9656 6.9H8.03375C7.94438 7.11125 7.86563 7.3277 7.79813 7.55H12.2006C12.2656 7.7619 12.3169 7.97965 12.3619 8.2H7.635C7.59312 8.4132 7.55813 8.629 7.53688 8.85H12.4625C12.4869 9.0632 12.5 9.27965 12.5 9.5H7.5C7.5 9.72035 7.51688 9.9355 7.5375 10.15H12.4637C12.44 10.3703 12.4056 10.5868 12.3625 10.8H7.63563C7.67875 11.0216 7.73437 11.2374 7.79875 11.45H12.2012C12.1337 11.6723 12.055 11.8888 11.9656 12.1H8.03375C8.12813 12.3236 8.23437 12.5407 8.35187 12.75H11.6419C11.5156 12.9762 11.375 13.1926 11.2238 13.4H8.76875C8.935 13.6288 9.11438 13.8465 9.3075 14.05H10.6919C10.4744 14.2794 10.2475 14.4972 10 14.6909C11.045 15.5092 12.3406 16 13.75 16C17.2019 16 20 13.0893 20 9.5C20 5.9107 17.2019 3 13.75 3Z" fill="#FED049"/>
</g>
<defs>
<clipPath id="clip0_6972_32533">
<rect width="20" height="13" fill="white" transform="translate(0 3)"/>
</clipPath>
</defs>
</svg>
