<svg width="25" height="24" viewBox="0 0 25 24" fill="none" xmlns="http://www.w3.org/2000/svg">
<g id="Icon">
<path id="Vector" d="M19.5 14C20.6046 14 21.5 13.1046 21.5 12C21.5 10.8954 20.6046 10 19.5 10C18.3954 10 17.5 10.8954 17.5 12C17.5 13.1046 18.3954 14 19.5 14Z" fill="#B693F8"/>
<path id="Vector_2" d="M12.5 14C13.6046 14 14.5 13.1046 14.5 12C14.5 10.8954 13.6046 10 12.5 10C11.3954 10 10.5 10.8954 10.5 12C10.5 13.1046 11.3954 14 12.5 14Z" fill="#B693F8"/>
<path id="Vector_3" d="M5.5 14C6.60457 14 7.5 13.1046 7.5 12C7.5 10.8954 6.60457 10 5.5 10C4.39543 10 3.5 10.8954 3.5 12C3.5 13.1046 4.39543 14 5.5 14Z" fill="#B693F8"/>
</g>
</svg>
