<svg width="16" height="16" viewBox="0 0 16 16" fill="none" xmlns="http://www.w3.org/2000/svg">
<path d="M14.37 7.14706L13.47 6.0937C13.3034 5.8937 13.1634 5.52036 13.1634 5.2537V4.12036C13.1634 3.4137 12.5834 2.8337 11.8767 2.8337H10.7434C10.4767 2.8337 10.0967 2.6937 9.89671 2.52703L8.84337 1.62703C8.38337 1.2337 7.63004 1.2337 7.17004 1.62703L6.10337 2.52703C5.90337 2.6937 5.53004 2.8337 5.26337 2.8337H4.11004C3.40337 2.8337 2.82337 3.4137 2.82337 4.12036V5.2537C2.82337 5.5137 2.69004 5.88703 2.52337 6.08703L1.62337 7.14706C1.23671 7.61372 1.23671 8.36039 1.62337 8.81372L2.52337 9.87372C2.69004 10.0671 2.82337 10.4471 2.82337 10.7071V11.8471C2.82337 12.5537 3.40337 13.1337 4.11004 13.1337H5.27004C5.53004 13.1337 5.91004 13.2737 6.11004 13.4404L7.16337 14.3404C7.62337 14.7337 8.37671 14.7337 8.83671 14.3404L9.89004 13.4404C10.09 13.2737 10.4634 13.1337 10.73 13.1337H11.8634C12.57 13.1337 13.15 12.5537 13.15 11.8471V10.7137C13.15 10.4471 13.29 10.0737 13.4567 9.87372L14.3567 8.82039C14.7634 8.36706 14.7634 7.61372 14.37 7.14706ZM7.49671 5.40703C7.49671 5.1337 7.72337 4.90703 7.99671 4.90703C8.27004 4.90703 8.49671 5.1337 8.49671 5.40703V8.62706C8.49671 8.90039 8.27004 9.12706 7.99671 9.12706C7.72337 9.12706 7.49671 8.90039 7.49671 8.62706V5.40703ZM7.99671 11.2337C7.63004 11.2337 7.33004 10.9337 7.33004 10.5671C7.33004 10.2004 7.62337 9.90039 7.99671 9.90039C8.36337 9.90039 8.66337 10.2004 8.66337 10.5671C8.66337 10.9337 8.37004 11.2337 7.99671 11.2337Z" fill="#F59E0B"/>
</svg>
