<svg width="24" height="24" viewBox="0 0 24 24" fill="none" xmlns="http://www.w3.org/2000/svg">
<path d="M22.3485 8.77792C21.5838 8.13504 20.4139 8.21161 19.75 9.00321L19.351 9.47522L22.1788 11.8479L22.5598 11.3776C23.215 10.5984 23.1321 9.43449 22.3485 8.77792Z" fill="#B693F8"/>
<path d="M14.361 15.3799L14.1506 15.6289C13.9679 15.8476 13.8364 16.109 13.7703 16.386L13.1983 18.7796C13.1443 19.0061 13.223 19.244 13.4014 19.3936C13.575 19.5396 13.82 19.5819 14.0413 19.4874L16.2997 18.508C16.5611 18.3944 16.7954 18.2196 16.978 18.0028L17.1892 17.7529L14.361 15.3799Z" fill="#B693F8"/>
<path d="M18.5564 10.415L15.1553 14.4392L17.9833 16.8122L21.3842 12.7878L18.5564 10.415Z" fill="#B693F8"/>
<path d="M17.4229 3.72736L15.0857 1.50674C14.8648 1.29727 14.593 1.17389 14.3065 1.09375V4.69107H17.959C17.8827 4.32562 17.6964 3.98707 17.4229 3.72736Z" fill="#B693F8"/>
<path d="M12.5735 16.0996C12.6834 15.6393 12.9027 15.2037 13.2068 14.8396L17.9984 9.1698V5.92258H13.6911C13.351 5.92258 13.0758 5.64737 13.0758 5.30726V1H3.84597C2.82806 1 2 1.82806 2 2.84597V20.157C2 21.175 2.82806 22.003 3.84597 22.003H16.1524C17.1703 22.003 17.9984 21.175 17.9984 20.157V18.7025L17.9185 18.797C17.6162 19.157 17.2262 19.4472 16.7918 19.6365L14.5312 20.6166C13.8941 20.8917 13.1565 20.7943 12.6107 20.3372C12.0717 19.8847 11.838 19.1786 12.0014 18.4936L12.5735 16.0996ZM5.07661 4.69194H11.2298C11.5699 4.69194 11.8452 4.96715 11.8452 5.30726C11.8452 5.64737 11.5699 5.92258 11.2298 5.92258H5.07661C4.7365 5.92258 4.46129 5.64737 4.46129 5.30726C4.46129 4.96715 4.7365 4.69194 5.07661 4.69194ZM5.07661 8.42489H14.9218C15.2619 8.42489 15.5371 8.70011 15.5371 9.04022C15.5371 9.38033 15.2619 9.65554 14.9218 9.65554H5.07661C4.7365 9.65554 4.46129 9.38033 4.46129 9.04022C4.46129 8.70011 4.7365 8.42489 5.07661 8.42489ZM9.99919 17.0394H5.07661C4.7365 17.0394 4.46129 16.7642 4.46129 16.4241C4.46129 16.084 4.7365 15.8088 5.07661 15.8088H9.99919C10.3393 15.8088 10.6145 16.084 10.6145 16.4241C10.6145 16.7642 10.3393 17.0394 9.99919 17.0394ZM5.07661 13.3475C4.7365 13.3475 4.46129 13.0723 4.46129 12.7322C4.46129 12.392 4.7365 12.1168 5.07661 12.1168H12.4605C12.8006 12.1168 13.0758 12.392 13.0758 12.7322C13.0758 13.0723 12.8006 13.3475 12.4605 13.3475H5.07661Z" fill="#B693F8"/>
</svg>
