<svg width="12" height="14" viewBox="0 0 12 14" fill="none" xmlns="http://www.w3.org/2000/svg">
<g id="Group">
<g id="Group_2">
<path id="Vector" d="M11.6853 9.81267L10.0071 8.1345C9.40775 7.53516 8.38887 7.77492 8.14913 8.55405C7.96932 9.09348 7.36998 9.39315 6.83057 9.27326C5.63188 8.97359 4.01364 7.41529 3.71397 6.15666C3.53416 5.61723 3.89377 5.01788 4.43318 4.8381C5.21233 4.59836 5.45207 3.57948 4.85273 2.98013L3.17456 1.30196C2.69508 0.882419 1.97587 0.882419 1.55632 1.30196L0.417566 2.44072C-0.721191 3.63941 0.537436 6.81594 3.35436 9.63287C6.17129 12.4498 9.34782 13.7684 10.5465 12.5697L11.6853 11.4309C12.1048 10.9514 12.1048 10.2322 11.6853 9.81267Z" fill="#26C8B8"/>
</g>
</g>
</svg>
