<svg width="19" height="19" viewBox="0 0 19 19" fill="none" xmlns="http://www.w3.org/2000/svg">
<g id="Group 84">
<path id="Vector" d="M11.4792 18.9996C11.2155 18.9996 10.9678 18.8682 10.8205 18.6473L9.47229 16.6246H7.91667C7.47967 16.6246 7.125 16.2699 7.125 15.8329C7.125 15.3959 7.47967 15.0413 7.91667 15.0413H9.89584C10.1603 15.0413 10.4073 15.1735 10.5545 15.3936L11.381 16.6333L13.1456 13.1033C13.2755 12.8452 13.5343 12.6774 13.8233 12.6663C14.1305 12.6591 14.3838 12.8024 14.5326 13.0494L16.6773 16.6246H18.2083C18.6453 16.6246 19 16.9793 19 17.4163C19 17.8533 18.6453 18.2079 18.2083 18.2079H16.2292C15.9513 18.2079 15.6932 18.0623 15.5507 17.824L13.9175 15.1022L12.1877 18.5626C12.061 18.8151 11.8101 18.9814 11.5283 18.9988C11.5124 18.9996 11.4958 18.9996 11.4792 18.9996Z" fill="#26C8B8"/>
<path id="Vector_2" d="M7.12484 7.91667C9.31097 7.91667 11.0832 6.14447 11.0832 3.95834C11.0832 1.77221 9.31097 0 7.12484 0C4.93871 0 3.1665 1.77221 3.1665 3.95834C3.1665 6.14447 4.93871 7.91667 7.12484 7.91667Z" fill="#26C8B8"/>
<path id="Vector_3" d="M5.54167 15.8333C5.54167 14.5239 6.60726 13.4583 7.91667 13.4583H9.89584C10.3067 13.4583 10.7026 13.5636 11.0501 13.7568L11.7301 12.3959C12.0761 11.7064 12.7348 11.2543 13.4829 11.134C12.7625 10.1484 11.6066 9.5 10.2917 9.5H3.95834C1.77254 9.5 0 11.2725 0 13.4583V16.0313C0 16.359 0.266 16.625 0.59375 16.625H5.68734C5.59867 16.3764 5.54167 16.112 5.54167 15.8333Z" fill="#26C8B8"/>
</g>
</svg>
