<svg width="24" height="24" viewBox="0 0 24 24" fill="none" xmlns="http://www.w3.org/2000/svg">
<path d="M14.4792 21.9996C14.2155 21.9996 13.9678 21.8682 13.8205 21.6473L12.4723 19.6246H10.9167C10.4797 19.6246 10.125 19.2699 10.125 18.8329C10.125 18.3959 10.4797 18.0413 10.9167 18.0413H12.8958C13.1603 18.0413 13.4073 18.1735 13.5545 18.3936L14.381 19.6333L16.1456 16.1033C16.2755 15.8452 16.5343 15.6774 16.8233 15.6663C17.1305 15.6591 17.3838 15.8024 17.5326 16.0494L19.6773 19.6246H21.2083C21.6453 19.6246 22 19.9793 22 20.4163C22 20.8533 21.6453 21.2079 21.2083 21.2079H19.2292C18.9513 21.2079 18.6932 21.0623 18.5507 20.824L16.9175 18.1022L15.1877 21.5626C15.061 21.8151 14.8101 21.9814 14.5283 21.9988C14.5124 21.9996 14.4958 21.9996 14.4792 21.9996Z" fill="#B693F8"/>
<path d="M10.125 10.9167C12.3112 10.9167 14.0834 9.14447 14.0834 6.95834C14.0834 4.77221 12.3112 3 10.125 3C7.93889 3 6.16669 4.77221 6.16669 6.95834C6.16669 9.14447 7.93889 10.9167 10.125 10.9167Z" fill="#B693F8"/>
<path d="M8.54167 18.8333C8.54167 17.5239 9.60726 16.4583 10.9167 16.4583H12.8958C13.3067 16.4583 13.7026 16.5636 14.0501 16.7568L14.7301 15.3959C15.0761 14.7064 15.7348 14.2543 16.4829 14.134C15.7625 13.1484 14.6066 12.5 13.2917 12.5H6.95834C4.77254 12.5 3 14.2725 3 16.4583V19.0313C3 19.359 3.266 19.625 3.59375 19.625H8.68734C8.59867 19.3764 8.54167 19.112 8.54167 18.8333Z" fill="#B693F8"/>
</svg>
