<svg width="12" height="12" viewBox="0 0 12 12" fill="none" xmlns="http://www.w3.org/2000/svg">
<path d="M11.1743 4.38945C10.7919 4.06801 10.207 4.10629 9.87502 4.5021L9.67554 4.7381L11.0894 5.92446L11.2799 5.68931C11.6075 5.29966 11.5661 4.71773 11.1743 4.38945Z" fill="#B693F8"/>
<path d="M7.18051 7.68945L7.07529 7.81398C6.98397 7.92332 6.91818 8.054 6.88514 8.19249L6.59916 9.3893C6.57213 9.50255 6.61148 9.62151 6.70069 9.69633C6.78752 9.76929 6.91 9.79048 7.02064 9.74319L8.14986 9.25352C8.28053 9.19674 8.39769 9.10933 8.48901 9.00089L8.59461 8.87595L7.18051 7.68945Z" fill="#B693F8"/>
<path d="M9.27821 5.20703L7.57764 7.21914L8.99165 8.40563L10.6921 6.39339L9.27821 5.20703Z" fill="#B693F8"/>
<path d="M8.7114 1.86368L7.54283 0.753368C7.43235 0.648635 7.29645 0.586947 7.1532 0.546875V2.34553H8.97946C8.94129 2.16281 8.84819 1.99354 8.7114 1.86368Z" fill="#B693F8"/>
<path d="M6.28673 8.04982C6.34172 7.81967 6.45137 7.60185 6.60339 7.41978L8.9992 4.5849V2.96129H6.84557C6.67551 2.96129 6.5379 2.82368 6.5379 2.65363V0.5H1.92298C1.41403 0.5 1 0.91403 1 1.42298V10.0785C1 10.5875 1.41403 11.0015 1.92298 11.0015H8.07621C8.58517 11.0015 8.9992 10.5875 8.9992 10.0785V9.35123L8.95924 9.39851C8.80812 9.57849 8.61312 9.72361 8.39589 9.81826L7.26561 10.3083C6.94703 10.4459 6.57827 10.3971 6.30537 10.1686C6.03586 9.94235 5.91899 9.58932 6.00071 9.24681L6.28673 8.04982ZM2.53831 2.34597H5.61492C5.78498 2.34597 5.92258 2.48357 5.92258 2.65363C5.92258 2.82368 5.78498 2.96129 5.61492 2.96129H2.53831C2.36825 2.96129 2.23065 2.82368 2.23065 2.65363C2.23065 2.48357 2.36825 2.34597 2.53831 2.34597ZM2.53831 4.21245H7.46089C7.63094 4.21245 7.76855 4.35005 7.76855 4.52011C7.76855 4.69016 7.63094 4.82777 7.46089 4.82777H2.53831C2.36825 4.82777 2.23065 4.69016 2.23065 4.52011C2.23065 4.35005 2.36825 4.21245 2.53831 4.21245ZM4.9996 8.51971H2.53831C2.36825 8.51971 2.23065 8.3821 2.23065 8.21204C2.23065 8.04199 2.36825 7.90438 2.53831 7.90438H4.9996C5.16965 7.90438 5.30726 8.04199 5.30726 8.21204C5.30726 8.3821 5.16965 8.51971 4.9996 8.51971ZM2.53831 6.67374C2.36825 6.67374 2.23065 6.53613 2.23065 6.36608C2.23065 6.19602 2.36825 6.05841 2.53831 6.05841H6.23024C6.4003 6.05841 6.5379 6.19602 6.5379 6.36608C6.5379 6.53613 6.4003 6.67374 6.23024 6.67374H2.53831Z" fill="#B693F8"/>
</svg>
