<svg width="14" height="14" viewBox="0 0 14 14" fill="none" xmlns="http://www.w3.org/2000/svg">
<g id="Group 86">
<path id="Vector" d="M13.5411 3.39218L10.9411 0.792178C10.9006 0.752016 10.8526 0.720242 10.7998 0.698677C10.747 0.677112 10.6904 0.666181 10.6334 0.666511H9.76674V4.13318C9.76674 4.36303 9.67543 4.58347 9.5129 4.746C9.35037 4.90853 9.12993 4.99984 8.90008 4.99984H5.43341C5.20356 4.99984 4.98312 4.90853 4.82059 4.746C4.65806 4.58347 4.56675 4.36303 4.56675 4.13318V0.666511H1.96675C1.62197 0.666511 1.29131 0.803475 1.04751 1.04727C0.803712 1.29107 0.666748 1.62173 0.666748 1.96651V12.3665C0.666748 12.7113 0.803712 13.0419 1.04751 13.2857C1.29131 13.5295 1.62197 13.6665 1.96675 13.6665H2.83341V9.76651C2.83341 9.42173 2.97038 9.09107 3.21417 8.84727C3.45797 8.60347 3.78863 8.46651 4.13341 8.46651H10.2001C10.5449 8.46651 10.8755 8.60347 11.1193 8.84727C11.3631 9.09107 11.5001 9.42173 11.5001 9.76651V13.6665H12.3667C12.7115 13.6665 13.0422 13.5295 13.286 13.2857C13.5298 13.0419 13.6667 12.7113 13.6667 12.3665V3.69984C13.6671 3.64281 13.6561 3.58628 13.6346 3.53348C13.613 3.48069 13.5812 3.43267 13.5411 3.39218Z" fill="white"/>
<path id="Vector_2" d="M5.43335 0.666504H8.90001V4.13317H5.43335V0.666504Z" fill="white"/>
<path id="Vector_3" d="M10.1999 9.33301H4.13328C4.01836 9.33301 3.90814 9.37866 3.82687 9.45993C3.74561 9.54119 3.69995 9.65141 3.69995 9.76634V13.6663H10.6333V9.76634C10.6333 9.65141 10.5876 9.54119 10.5064 9.45993C10.4251 9.37866 10.3149 9.33301 10.1999 9.33301Z" fill="white"/>
</g>
</svg>
