<svg width="24" height="24" viewBox="0 0 24 24" fill="none" xmlns="http://www.w3.org/2000/svg">
<path d="M14.0583 2.86364H19.9404C20.2652 2.86364 20.5286 3.12141 20.5286 3.43939V9.19697C20.5286 9.51495 20.2652 9.77273 19.9404 9.77273H14.0583C13.7334 9.77273 13.4701 9.51495 13.4701 9.19697V3.43939C13.4701 3.12141 13.7334 2.86364 14.0583 2.86364ZM14.6465 4.01515V8.62121H19.3522V4.01515H14.6465ZM3.17642 14.0909H9.05851C9.38337 14.0909 9.64672 14.3487 9.64672 14.6667V20.4242C9.64672 20.7422 9.38337 21 9.05851 21H3.17642C2.85156 21 2.58821 20.7422 2.58821 20.4242V14.6667C2.58821 14.3487 2.85156 14.0909 3.17642 14.0909ZM3.76463 15.2424V19.8485H8.4703V15.2424H3.76463ZM17.8015 13.225L21.919 20.1341C22.1477 20.518 21.8649 21 21.4109 21H13.176C12.722 21 12.4391 20.518 12.6679 20.1341L16.7854 13.225C17.0123 12.8442 17.5745 12.8442 17.8015 13.225ZM17.2934 14.6578L14.2001 19.8485H20.3868L17.2934 14.6578ZM6.41157 2C8.84801 2 10.8231 3.93332 10.8231 6.31818C10.8231 8.70305 8.84801 10.6364 6.41157 10.6364C3.97513 10.6364 2 8.70305 2 6.31818C2 3.93332 3.97513 2 6.41157 2ZM6.41157 3.15152C4.62484 3.15152 3.17642 4.56928 3.17642 6.31818C3.17642 8.06708 4.62484 9.48485 6.41157 9.48485C8.19829 9.48485 9.64672 8.06708 9.64672 6.31818C9.64672 4.56928 8.19829 3.15152 6.41157 3.15152Z" fill="#A0A0A0" stroke="#A0A0A0" strokeWidth="0.5"/>
</svg>
