<svg width="23" height="19" viewBox="0 0 23 19" fill="none" xmlns="http://www.w3.org/2000/svg">
<g id="Group">
<path id="Vector" d="M13.6245 3.26107C14.6684 3.9156 15.4004 5.02319 15.5337 6.30885C15.9594 6.50777 16.4319 6.62217 16.9329 6.62217C18.7618 6.62217 20.2441 5.13984 20.2441 3.31122C20.2441 1.48233 18.7618 0 16.9329 0C15.1215 0.000563517 13.6521 1.45641 13.6245 3.26107ZM11.4552 10.0407C13.2841 10.0407 14.7665 8.55813 14.7665 6.72952C14.7665 4.90091 13.2838 3.41858 11.4552 3.41858C9.62662 3.41858 8.14344 4.90119 8.14344 6.7298C8.14344 8.55841 9.62662 10.0407 11.4552 10.0407ZM12.8598 10.2664H10.0501C7.71235 10.2664 5.81048 12.1686 5.81048 14.5063V17.9424L5.81922 17.9962L6.05589 18.0703C8.28686 18.7674 10.2251 18.9998 11.8204 18.9998C14.9364 18.9998 16.7424 18.1114 16.8537 18.0548L17.0749 17.9429H17.0986V14.5063C17.0994 12.1686 15.1975 10.2664 12.8598 10.2664ZM18.338 6.84814H15.55C15.5199 7.96362 15.0437 8.96809 14.2906 9.69052C16.3685 10.3084 17.8889 12.2354 17.8889 14.5114V15.5703C20.6417 15.4694 22.228 14.6892 22.3325 14.6368L22.5537 14.5246H22.5774V11.0875C22.5774 8.75001 20.6755 6.84814 18.338 6.84814ZM5.64509 6.62273C6.29285 6.62273 6.89553 6.43367 7.40608 6.11162C7.56837 5.05306 8.13584 4.12804 8.94646 3.49803C8.94984 3.43604 8.95575 3.37462 8.95575 3.31207C8.95575 1.48318 7.47314 0.000845214 5.64509 0.000845214C3.81592 0.000845214 2.33387 1.48318 2.33387 3.31207C2.33387 5.14012 3.81592 6.62273 5.64509 6.62273ZM8.61877 9.69052C7.86929 8.97175 7.39481 7.97264 7.36015 6.86392C7.25675 6.85631 7.15447 6.84814 7.04909 6.84814H4.23968C1.90193 6.84814 6.10352e-05 8.75001 6.10352e-05 11.0875V14.5241L0.00879555 14.5771L0.245473 14.6517C2.0352 15.2104 3.63249 15.468 5.01987 15.5491V14.5114C5.02043 12.2354 6.54024 10.309 8.61877 9.69052Z" fill="#B693F8"/>
</g>
</svg>
