<svg width="16" height="16" viewBox="0 0 16 16" fill="none" xmlns="http://www.w3.org/2000/svg">
<g id="Icon">
<path id="Subtract" fill-rule="evenodd" clip-rule="evenodd" d="M13.47 6.09467L14.37 7.14803C14.7633 7.6147 14.7633 8.36803 14.3566 8.82137L13.4566 9.8747C13.29 10.0747 13.15 10.448 13.15 10.7147V11.848C13.15 12.5547 12.57 13.1347 11.8633 13.1347H10.73C10.4633 13.1347 10.09 13.2747 9.88998 13.4414L8.83665 14.3414C8.37665 14.7347 7.62331 14.7347 7.16331 14.3414L6.10998 13.4414C5.90998 13.2747 5.52998 13.1347 5.26998 13.1347H4.10998C3.40331 13.1347 2.82331 12.5547 2.82331 11.848V10.708C2.82331 10.448 2.68998 10.068 2.52331 9.8747L1.62331 8.8147C1.23665 8.36137 1.23665 7.6147 1.62331 7.14803L2.52331 6.08801C2.68998 5.88801 2.82331 5.51467 2.82331 5.25467V4.12134C2.82331 3.41467 3.40331 2.83467 4.10998 2.83467H5.26331C5.52998 2.83467 5.90331 2.69467 6.10331 2.52801L7.16998 1.62801C7.62998 1.23467 8.38331 1.23467 8.84331 1.62801L9.89665 2.52801C10.0966 2.69467 10.4766 2.83467 10.7433 2.83467H11.8766C12.5833 2.83467 13.1633 3.41467 13.1633 4.12134V5.25467C13.1633 5.52134 13.3033 5.89467 13.47 6.09467ZM10.9168 5.51884C11.1646 5.27114 11.5666 5.27099 11.8141 5.51884C12.0619 5.76667 12.0619 6.16861 11.8141 6.41629L7.32691 10.9036C7.20307 11.0276 7.04051 11.0895 6.8781 11.0895C6.71569 11.0895 6.5533 11.0275 6.42945 10.9036L4.18587 8.66004C3.93802 8.41219 3.93802 8.01043 4.18587 7.76257C4.43372 7.51472 4.83548 7.51472 5.08333 7.76257L6.87828 9.5575L10.9168 5.51884Z" fill="#B693F8"/>
</g>
</svg>
