<svg width="16" height="16" viewBox="0 0 16 16" fill="none" xmlns="http://www.w3.org/2000/svg">
<path d="M14.37 7.14901L13.47 6.09565C13.3033 5.89565 13.1633 5.52232 13.1633 5.25565V4.12232C13.1633 3.41565 12.5833 2.83565 11.8767 2.83565H10.7433C10.4767 2.83565 10.0967 2.69565 9.89668 2.52898L8.84334 1.62898C8.38334 1.23565 7.63001 1.23565 7.17001 1.62898L6.10334 2.52898C5.90334 2.69565 5.53001 2.83565 5.26334 2.83565H4.11001C3.40334 2.83565 2.82334 3.41565 2.82334 4.12232V5.25565C2.82334 5.51565 2.69001 5.88898 2.52334 6.08898L1.62334 7.14901C1.23668 7.61568 1.23668 8.36234 1.62334 8.81568L2.52334 9.87568C2.69001 10.069 2.82334 10.449 2.82334 10.709V11.849C2.82334 12.5557 3.40334 13.1357 4.11001 13.1357H5.27001C5.53001 13.1357 5.91001 13.2757 6.11001 13.4423L7.16334 14.3423C7.62334 14.7357 8.37668 14.7357 8.83668 14.3423L9.89001 13.4423C10.09 13.2757 10.4633 13.1357 10.73 13.1357H11.8633C12.57 13.1357 13.15 12.5557 13.15 11.849V10.7157C13.15 10.449 13.29 10.0757 13.4567 9.87568L14.3567 8.82234C14.7633 8.36901 14.7633 7.61568 14.37 7.14901ZM7.49668 5.40898C7.49668 5.13565 7.72334 4.90898 7.99668 4.90898C8.27001 4.90898 8.49668 5.13565 8.49668 5.40898V8.62901C8.49668 8.90234 8.27001 9.12901 7.99668 9.12901C7.72334 9.12901 7.49668 8.90234 7.49668 8.62901V5.40898ZM7.99668 11.2357C7.63001 11.2357 7.33001 10.9357 7.33001 10.569C7.33001 10.2023 7.62334 9.90234 7.99668 9.90234C8.36334 9.90234 8.66334 10.2023 8.66334 10.569C8.66334 10.9357 8.37001 11.2357 7.99668 11.2357Z" fill="#EF4444"/>
</svg>
