<svg width="16" height="16" viewBox="0 0 16 16" fill="none" xmlns="http://www.w3.org/2000/svg">
<g id="Icon">
<path id="Vector" d="M14.37 7.14803L13.47 6.09467C13.3033 5.89467 13.1633 5.52134 13.1633 5.25467V4.12134C13.1633 3.41467 12.5833 2.83467 11.8766 2.83467H10.7433C10.4766 2.83467 10.0966 2.69467 9.89665 2.52801L8.84331 1.62801C8.38331 1.23467 7.62998 1.23467 7.16998 1.62801L6.10331 2.52801C5.90331 2.69467 5.52998 2.83467 5.26331 2.83467H4.10998C3.40331 2.83467 2.82331 3.41467 2.82331 4.12134V5.25467C2.82331 5.51467 2.68998 5.88801 2.52331 6.08801L1.62331 7.14803C1.23665 7.6147 1.23665 8.36137 1.62331 8.8147L2.52331 9.8747C2.68998 10.068 2.82331 10.448 2.82331 10.708V11.848C2.82331 12.5547 3.40331 13.1347 4.10998 13.1347H5.26998C5.52998 13.1347 5.90998 13.2747 6.10998 13.4414L7.16331 14.3414C7.62331 14.7347 8.37665 14.7347 8.83665 14.3414L9.88998 13.4414C10.09 13.2747 10.4633 13.1347 10.73 13.1347H11.8633C12.57 13.1347 13.15 12.5547 13.15 11.848V10.7147C13.15 10.448 13.29 10.0747 13.4566 9.8747L14.3566 8.82137C14.7633 8.36803 14.7633 7.6147 14.37 7.14803ZM7.49665 5.40801C7.49665 5.13467 7.72331 4.90801 7.99665 4.90801C8.26998 4.90801 8.49665 5.13467 8.49665 5.40801V8.62803C8.49665 8.90137 8.26998 9.12803 7.99665 9.12803C7.72331 9.12803 7.49665 8.90137 7.49665 8.62803V5.40801ZM7.99665 11.2347C7.62998 11.2347 7.32998 10.9347 7.32998 10.568C7.32998 10.2014 7.62331 9.90137 7.99665 9.90137C8.36331 9.90137 8.66331 10.2014 8.66331 10.568C8.66331 10.9347 8.36998 11.2347 7.99665 11.2347Z" fill="#A0A0A0"/>
</g>
</svg>
