<svg width="16" height="17" viewBox="0 0 16 17" fill="none" xmlns="http://www.w3.org/2000/svg">
<path d="M9.37217 2.40877H13.2936C13.5101 2.40877 13.6857 2.58062 13.6857 2.7926V6.63099C13.6857 6.84298 13.5101 7.01483 13.2936 7.01483H9.37217C9.1556 7.01483 8.98003 6.84298 8.98003 6.63099V2.7926C8.98003 2.58062 9.1556 2.40877 9.37217 2.40877ZM9.76431 3.17644V6.24715H12.9014V3.17644H9.76431ZM2.11759 9.89361H6.03899C6.25556 9.89361 6.43113 10.0655 6.43113 10.2775V14.1158C6.43113 14.3278 6.25556 14.4997 6.03899 14.4997H2.11759C1.90102 14.4997 1.72545 14.3278 1.72545 14.1158V10.2775C1.72545 10.0655 1.90102 9.89361 2.11759 9.89361ZM2.50973 10.6613V13.732H5.64685V10.6613H2.50973ZM11.8677 9.31637L14.6126 13.9224C14.7651 14.1783 14.5766 14.4997 14.2739 14.4997H8.78396C8.48131 14.4997 8.29274 14.1783 8.44524 13.9224L11.1902 9.31637C11.3415 9.06246 11.7163 9.06246 11.8677 9.31637ZM11.5289 10.2716L9.46669 13.732H13.5912L11.5289 10.2716ZM4.27436 1.83301C5.89865 1.83301 7.2154 3.12188 7.2154 4.7118C7.2154 6.30171 5.89865 7.59058 4.27436 7.59058C2.65006 7.59058 1.33331 6.30171 1.33331 4.7118C1.33331 3.12188 2.65006 1.83301 4.27436 1.83301ZM4.27436 2.60068C3.08321 2.60068 2.11759 3.54586 2.11759 4.7118C2.11759 5.87773 3.08321 6.82291 4.27436 6.82291C5.46551 6.82291 6.43113 5.87773 6.43113 4.7118C6.43113 3.54586 5.46551 2.60068 4.27436 2.60068Z" fill="#F59E0B" stroke="#F59E0B" strokeWidth="0.333333"/>
</svg>
